<svg width="865" height="209" viewBox="0 0 865 209" fill="none" xmlns="http://www.w3.org/2000/svg">
<path d="M18.5334 188H44.3987V127.919H107.433V188H133.298V44.1115H107.433V104.192H44.3987V44.1115H18.5334V188ZM206.568 190.037C223.676 190.037 237.219 184.029 248.319 171.707L231.211 156.738C224.083 164.68 215.937 167.532 206.772 167.532C190.784 167.532 183.452 158.571 181.314 145.231H251.17C251.68 143.805 252.087 139.63 252.087 135.455C252.087 112.746 240.58 84.1315 204.939 84.1315C170.52 84.1315 155.041 111.015 155.041 137.491C155.041 164.884 171.538 190.037 206.568 190.037ZM181.314 127.308C183.656 114.579 190.071 105.007 204.735 105.007C215.529 105.007 224.287 110.404 226.833 120.893C227.444 122.929 227.647 125.068 227.647 127.308H181.314Z" fill="#F3EFFE"/>
<path d="M443.342 84.1315C423.281 84.1315 410.348 93.0927 400.572 106.433L419.615 120.18C423.994 112.746 431.835 105.822 443.545 105.822C459.737 105.822 464.217 112.237 464.726 127.308H437.13C414.32 127.308 396.601 134.64 396.601 156.738C396.601 178.02 412.69 190.037 433.566 190.037C445.175 190.037 458.718 184.945 465.337 174.456L466.865 188H487.333V126.29C487.333 101.443 471.04 84.1315 443.342 84.1315ZM438.555 169.059C427.456 169.059 422.059 164.273 422.059 157.552C422.059 151.137 427.252 145.231 438.555 145.231H464.828V146.045C463.301 158.061 453.83 169.059 438.555 169.059ZM511.826 188H535.858V145.027C535.858 119.162 547.976 108.367 559.585 108.367C563.556 108.367 567.324 109.589 570.684 111.83L581.988 91.4634C577.1 86.4736 570.073 84.1315 563.353 84.1315C551.947 84.1315 540.44 91.056 536.062 103.378V86.2699H511.826V188ZM592.835 67.0237H618.904V44.1115H592.835V67.0237ZM593.446 188H618.293V86.2699H593.446V188ZM688.508 190.037C719.974 190.037 740.646 165.699 740.646 136.88C740.646 108.164 719.974 84.1315 688.508 84.1315C657.042 84.1315 636.37 108.164 636.37 136.88C636.37 165.699 657.042 190.037 688.508 190.037ZM688.508 168.652C669.771 168.652 662.235 153.581 662.235 136.88C662.235 120.18 669.771 105.618 688.508 105.618C707.347 105.618 714.781 120.18 714.781 136.88C714.781 153.581 707.347 168.652 688.508 168.652ZM758.723 188H783.57V132.298C783.57 114.579 792.328 107.044 806.279 107.044C819.008 107.044 825.728 116.718 825.728 130.058V188H850.575V126.901C850.575 105.618 840.087 84.1315 813.407 84.1315C803.427 84.1315 791.717 88.1029 783.57 98.0824V86.2699H758.723V188Z" fill="#F3EFFE"/>
<mask id="path-3-inside-1_30_210" fill="white">
<path fill-rule="evenodd" clip-rule="evenodd" d="M351.222 156.031C333.128 149.455 323.79 129.456 330.366 111.361C332.716 104.894 336.782 99.5451 341.862 95.6419C342.795 94.9254 343.531 93.9189 343.936 92.8148V92.8148C345.044 89.7955 343.67 86.3203 340.545 85.5606C313.947 79.0952 286.181 93.5462 276.614 119.87C266.35 148.115 280.926 179.333 309.17 189.597C335.754 199.258 363.428 191.161 375.149 166.626C376.455 163.893 375.25 160.663 372.752 158.951V158.951C371.25 157.923 369.46 157.601 367.656 157.839C362.284 158.547 356.667 158.009 351.222 156.031Z"/>
</mask>
<path d="M367.656 157.839L369.231 169.793L367.656 157.839ZM341.698 115.48C337.397 127.315 343.505 140.397 355.341 144.698L347.104 167.363C322.751 158.513 310.184 131.596 319.034 107.243L341.698 115.48ZM349.208 105.203C345.893 107.75 343.242 111.232 341.698 115.48L319.034 107.243C322.191 98.5557 327.67 91.3403 334.516 86.0806L349.208 105.203ZM337.697 97.2769C317.005 92.2471 295.39 103.505 287.947 123.988L265.282 115.752C276.971 83.5873 310.889 65.9433 343.393 73.8444L337.697 97.2769ZM287.947 123.988C279.957 145.974 291.303 170.275 313.289 178.265L305.052 200.93C270.549 188.391 252.743 150.255 265.282 115.752L287.947 123.988ZM313.289 178.265C335.477 186.329 355.836 179.083 364.27 161.429L386.029 171.824C371.021 203.239 336.032 212.188 305.052 200.93L313.289 178.265ZM355.341 144.698C358.922 146 362.583 146.346 366.08 145.885L369.231 169.793C361.985 170.748 354.412 170.019 347.104 167.363L355.341 144.698ZM364.27 161.429C363.442 163.161 363.508 164.918 363.928 166.188C364.324 167.388 365.057 168.295 365.936 168.898L379.567 149.005C385.94 153.372 390.396 162.681 386.029 171.824L364.27 161.429ZM332.616 88.6628C332.119 90.0192 332.101 91.6423 332.808 93.2341C333.576 94.9632 335.27 96.6869 337.697 97.2769L343.393 73.8444C355.156 76.7037 358.221 88.8834 355.256 96.9668L332.616 88.6628ZM365.936 168.898C367.292 169.827 368.61 169.875 369.231 169.793L366.08 145.885C370.31 145.328 375.209 146.019 379.567 149.005L365.936 168.898ZM334.516 86.0806C333.626 86.7649 332.991 87.6397 332.616 88.6628L355.256 96.9668C354.071 100.198 351.964 103.086 349.208 105.203L334.516 86.0806Z" fill="white" mask="url(#path-3-inside-1_30_210)"/>
</svg>
