<svg width="1610" height="665" viewBox="0 0 1610 665" fill="none" xmlns="http://www.w3.org/2000/svg">
<g filter="url(#filter0_d_467_38086)">
<g filter="url(#filter1_dd_467_38086)">
<rect width="1440" height="452" transform="translate(85 103)" fill="#4E7B11"/>
</g>
</g>
<g filter="url(#filter2_d_467_38086)">
<mask id="mask0_467_38086" style="mask-type:alpha" maskUnits="userSpaceOnUse" x="146" y="-1" width="1357" height="619">
<g clip-path="url(#clip0_467_38086)">
<path d="M1270.77 223.243C1265.05 214.988 1267.11 203.664 1275.37 197.95L1335.16 156.568C1343.41 150.855 1354.74 152.915 1360.45 161.17L1422.52 250.855C1428.24 259.11 1426.18 270.434 1417.92 276.148L1358.13 317.529C1349.88 323.243 1338.55 321.182 1332.84 312.927L1270.77 223.243Z" fill="#5E980F"/>
<path d="M1284.57 147.365C1276.32 153.078 1274.26 164.402 1279.97 172.657L1339.76 131.276C1348.02 125.562 1359.34 127.623 1365.05 135.878L1437.47 240.509C1445.73 234.796 1447.79 223.472 1442.07 215.216L1369.65 110.585C1363.94 102.33 1352.62 100.269 1344.36 105.983L1284.57 147.365Z" fill="#5E980F"/>
</g>
<path d="M397.846 169.858C410.922 177.372 409.964 195.692 396.175 201.801L266.851 259.1C253.846 264.862 239.006 255.326 239.721 241.666L246.404 113.889C247.118 100.229 262.871 92.293 275.204 99.3803L397.846 169.858Z" fill="#5E980F"/>
<path d="M185.638 421.846C180.858 419.493 178.89 413.709 181.244 408.929C183.597 404.148 189.381 402.18 194.162 404.534L379.405 495.732C384.186 498.086 386.153 503.869 383.8 508.65C381.446 513.431 375.662 515.398 370.882 513.045L185.638 421.846Z" fill="#5E980F"/>
<path d="M336.778 370.429C339.131 365.648 337.164 359.865 332.383 357.511C327.602 355.158 321.819 357.125 319.465 361.906L228.267 547.149C225.913 551.93 227.881 557.713 232.662 560.067C237.442 562.421 243.226 560.453 245.579 555.672L336.778 370.429Z" fill="#5E980F"/>
<path d="M1167.13 416.259C1168.34 421.147 1165.36 426.092 1160.47 427.304L1133.92 433.888C1124.15 436.312 1118.19 446.202 1120.61 455.977L1142.56 544.477C1144.98 554.252 1154.87 560.212 1164.65 557.787L1253.15 535.84C1262.92 533.416 1268.88 523.526 1266.46 513.75L1259.87 487.201C1258.66 482.313 1261.64 477.368 1266.53 476.156C1271.42 474.944 1276.36 477.923 1277.57 482.811L1288.55 527.061C1290.97 536.836 1285.01 546.726 1275.24 549.15L1151.34 579.877C1141.56 582.301 1131.67 576.342 1129.25 566.566L1098.52 442.667C1096.1 432.892 1102.06 423.002 1111.83 420.578L1156.08 409.604C1160.97 408.392 1165.92 411.371 1167.13 416.259Z" fill="#5E980F"/>
<path d="M1212.18 432.608C1215.43 427.217 1222.43 425.48 1227.82 428.729C1233.21 431.977 1234.95 438.982 1231.7 444.373L1208.67 482.603C1205.42 487.995 1198.41 489.732 1193.02 486.483C1187.63 483.235 1185.89 476.23 1189.14 470.839L1212.18 432.608Z" fill="#5E980F"/>
<path d="M1244.37 393.985C1247.28 392.662 1250.62 394.67 1250.81 397.863L1254.06 452.171C1254.28 455.835 1250.3 458.243 1247.16 456.348L1194.37 424.538C1191.22 422.644 1191.49 418 1194.84 416.483L1244.37 393.985Z" fill="#5E980F"/>
<g clip-path="url(#clip1_467_38086)">
<path d="M722.33 100.771C729.031 95.9139 738.402 97.4088 743.259 104.11C748.117 110.812 746.622 120.182 739.92 125.04L701.091 153.185C694.389 158.042 685.019 156.547 680.161 149.846C675.304 143.144 676.799 133.774 683.5 128.916L722.33 100.771Z" fill="#5E980F"/>
<path d="M783.28 70.5009C786.45 70.4216 788.714 73.5455 787.652 76.5333L762.043 148.603C760.824 152.032 756.259 152.689 754.123 149.742L703.273 79.5872C701.137 76.6404 703.181 72.5065 706.819 72.4154L783.28 70.5009Z" fill="#5E980F"/>
<path d="M616.014 213.784C609.313 218.641 599.944 217.146 595.087 210.445C590.23 203.745 591.725 194.375 598.426 189.519L637.276 161.358C643.977 156.501 653.346 157.996 658.203 164.697C663.06 171.397 661.566 180.767 654.865 185.624L616.014 213.784Z" fill="#5E980F"/>
<path d="M555.055 244.063C551.885 244.143 549.62 241.018 550.682 238.03L576.31 165.953C577.53 162.524 582.094 161.868 584.229 164.814L635.075 234.962C637.211 237.908 635.167 242.042 631.529 242.134L555.055 244.063Z" fill="#5E980F"/>
</g>
<path fill-rule="evenodd" clip-rule="evenodd" d="M1077.64 202.908C1104.12 175.569 1103.42 131.946 1076.08 105.472C1048.74 78.9988 1005.12 79.6998 978.641 107.038C952.168 134.377 952.869 178 980.207 204.474C1007.55 230.947 1051.17 230.246 1077.64 202.908ZM1090.02 214.892C1123.11 180.719 1122.23 126.189 1088.06 93.0973C1053.89 60.0052 999.358 60.8815 966.266 95.0546C933.174 129.228 934.05 183.757 968.223 216.849C1002.4 249.941 1056.93 249.065 1090.02 214.892Z" fill="#5E980F"/>
<path fill-rule="evenodd" clip-rule="evenodd" d="M1057.32 75.3175L949.465 186.694L961.84 198.678L1069.69 87.3012L1057.32 75.3175Z" fill="#5E980F"/>
<path fill-rule="evenodd" clip-rule="evenodd" d="M1094.44 111.269L986.591 222.645L998.966 234.629L1106.82 123.252L1094.44 111.269Z" fill="#5E980F"/>
<path fill-rule="evenodd" clip-rule="evenodd" d="M1076.83 181.175C1072.11 167.752 1061.7 151.499 1046.12 136.41C1030.54 121.321 1013.96 111.437 1000.39 107.156C985.723 102.528 979.93 105.708 978.641 107.038C977.353 108.369 974.361 114.261 979.458 128.771C984.173 142.195 994.585 158.447 1010.17 173.536C1025.75 188.625 1042.33 198.509 1055.89 202.79C1070.56 207.419 1076.35 204.239 1077.64 202.908C1078.93 201.577 1081.92 195.685 1076.83 181.175ZM1090.02 214.892C1106.56 197.805 1092.27 157.127 1058.1 124.035C1023.93 90.9431 982.812 77.9681 966.266 95.0546C949.72 112.141 964.01 152.819 998.183 185.911C1032.36 219.003 1073.47 231.978 1090.02 214.892Z" fill="#5E980F"/>
<path d="M660.961 431.344C661.681 429.663 663.334 428.573 665.163 428.573H732.282C734.111 428.573 735.764 429.663 736.484 431.344L746.281 454.203C747.574 457.22 745.361 460.576 742.079 460.576H655.366C652.084 460.576 649.871 457.22 651.164 454.203L660.961 431.344Z" fill="#5E980F"/>
<path fill-rule="evenodd" clip-rule="evenodd" d="M625.574 456.004C615.474 456.004 607.287 464.192 607.287 474.291V556.583C607.287 566.683 615.474 574.87 625.574 574.87H771.871C781.971 574.87 790.158 566.683 790.158 556.583V474.291C790.158 464.192 781.971 456.004 771.871 456.004H625.574ZM698.723 547.44C718.922 547.44 735.297 531.065 735.297 510.865C735.297 490.666 718.922 474.291 698.723 474.291C678.523 474.291 662.148 490.666 662.148 510.865C662.148 531.065 678.523 547.44 698.723 547.44Z" fill="#5E980F"/>
</mask>
<g mask="url(#mask0_467_38086)">
<rect x="79" y="103" width="1453" height="452" fill="#5E980F"/>
</g>
</g>
<g opacity="0.5" filter="url(#filter3_d_467_38086)">
<rect x="85" y="103" width="1440" height="452" fill="black"/>
<rect x="85.5" y="103.5" width="1439" height="451" stroke="black"/>
</g>
<g filter="url(#filter4_d_467_38086)">
<path fill-rule="evenodd" clip-rule="evenodd" d="M865.225 340.495C865.229 351.371 873.014 359.229 883.986 359.234C894.963 359.229 902.743 351.371 902.747 340.495C902.747 329.601 894.963 321.752 883.986 321.748C873.009 321.752 865.229 329.606 865.225 340.495V340.495ZM883.986 325.667C892.849 325.685 898.34 332.348 898.354 340.495C898.34 348.633 892.849 355.3 883.986 355.309C875.122 355.3 869.631 348.633 869.618 340.495C869.631 332.348 875.122 325.685 883.986 325.667V325.667Z" fill="white"/>
<path fill-rule="evenodd" clip-rule="evenodd" d="M910.662 358.3H915.055V328.108H923.454V324.179H915.055V315.428C915.06 308.963 917.123 305.747 921.49 305.733C923.205 305.733 924.506 305.95 925.594 306.451L926.461 302.684C925.106 302.102 923.445 301.809 921.255 301.809C916.717 301.822 910.666 304.543 910.657 313.718V324.179H903.193V328.108H910.522H910.657V358.3H910.662Z" fill="white"/>
<path fill-rule="evenodd" clip-rule="evenodd" d="M937.25 330.936C937.255 347.65 948.845 359.699 965.575 359.703C982.304 359.699 993.895 347.65 993.9 330.936C993.895 314.219 982.304 302.179 965.575 302.174C948.845 302.174 937.255 314.219 937.25 330.936V330.936ZM965.575 306.559C972.804 306.559 978.67 309.221 982.738 313.601C986.793 317.976 989.042 324.075 989.042 330.941C989.042 337.807 986.793 343.897 982.738 348.286C978.679 352.657 972.809 355.318 965.584 355.318C965.584 355.318 965.58 355.318 965.575 355.318C958.346 355.318 952.476 352.661 948.412 348.286C944.353 343.897 942.109 337.811 942.109 330.941C942.109 324.08 944.358 317.976 948.412 313.601C952.476 309.221 958.351 306.559 965.575 306.559V306.559Z" fill="white"/>
<path fill-rule="evenodd" clip-rule="evenodd" d="M1004.68 328.902L1004.5 329.213L1004.42 328.866C1004.26 328.14 1004.19 325.293 1004.11 322.677H999.715C999.728 324.657 1000.1 330.057 1000.1 332.642V358.3H1004.5V338.858C1004.51 331.825 1008.21 326.15 1016.38 326.137C1016.82 326.137 1017.4 326.204 1018.05 326.407L1018.56 322.104C1017.68 321.887 1016.86 321.748 1015.98 321.748C1010.67 321.748 1006.99 324.734 1004.68 328.902V328.902Z" fill="white"/>
<path fill-rule="evenodd" clip-rule="evenodd" d="M1039.86 321.748C1034.08 321.743 1029.54 324.982 1027.7 328.897L1027.66 328.974H1027.57H1027.23L1027.21 328.87C1027.05 328.14 1026.97 325.298 1026.9 322.681H1022.5C1022.52 324.657 1022.89 330.061 1022.89 332.646V358.305H1027.28V340.5C1027.29 330.576 1032.87 325.69 1039.86 325.672C1047.35 325.69 1049.01 331.478 1049.02 337.31V358.305H1053.41V337.076C1053.39 329.24 1050.98 321.761 1039.86 321.748V321.748Z" fill="white"/>
<path fill-rule="evenodd" clip-rule="evenodd" d="M1063.13 308.192C1063.13 310.059 1064.62 311.548 1066.49 311.548C1068.36 311.548 1069.85 310.059 1069.86 308.192C1069.85 306.32 1068.36 304.831 1066.49 304.827C1064.62 304.831 1063.13 306.32 1063.13 308.192V308.192Z" fill="white"/>
<path fill-rule="evenodd" clip-rule="evenodd" d="M1064.29 340.599V358.3H1068.69V340.599V322.681H1064.29V340.599Z" fill="white"/>
<path fill-rule="evenodd" clip-rule="evenodd" d="M1092.63 355.309C1089.45 355.305 1087.52 353.365 1087.51 350.126V326.606H1097.78V322.681H1087.51V312.346H1083.12V322.681H1075.34V326.606H1083.12V350.126C1083.14 355.214 1085.61 359.225 1092.24 359.238C1093.96 359.238 1096.46 358.643 1098.16 358.038L1097.8 354.136C1096.19 354.799 1094.38 355.309 1092.63 355.309V355.309Z" fill="white"/>
<path fill-rule="evenodd" clip-rule="evenodd" d="M1121.64 321.747C1115.86 321.743 1111.32 324.982 1109.48 328.897L1109.44 328.978H1109.36H1109.06V303.297H1104.67V358.3H1109.06V340.495C1109.08 330.571 1114.65 325.685 1121.65 325.672C1129.14 325.685 1130.8 331.473 1130.81 337.306V358.3H1135.2V337.071C1135.17 329.245 1132.76 321.761 1121.64 321.747V321.747Z" fill="white"/>
<path fill-rule="evenodd" clip-rule="evenodd" d="M1140 340.495C1140.01 351.371 1147.8 359.229 1158.76 359.234C1169.74 359.229 1177.53 351.371 1177.53 340.495C1177.53 329.601 1169.74 321.752 1158.76 321.748C1147.79 321.752 1140.01 329.606 1140 340.495V340.495ZM1158.76 325.672C1167.63 325.686 1173.12 332.348 1173.14 340.495C1173.12 348.633 1167.63 355.3 1158.76 355.309C1149.91 355.3 1144.41 348.633 1144.4 340.495C1144.41 332.348 1149.91 325.686 1158.76 325.672V325.672Z" fill="white"/>
<path fill-rule="evenodd" clip-rule="evenodd" d="M1183.2 330.751V358.3H1187.6V330.751V303.297H1183.2V330.751Z" fill="white"/>
<path fill-rule="evenodd" clip-rule="evenodd" d="M1193.27 340.495C1193.28 351.376 1201.06 359.229 1212.03 359.234C1223.01 359.229 1230.79 351.376 1230.79 340.495C1230.79 329.601 1223 321.752 1212.03 321.748C1201.06 321.752 1193.28 329.606 1193.27 340.495V340.495ZM1212.03 325.667C1220.89 325.685 1226.38 332.348 1226.4 340.495C1226.38 348.633 1220.89 355.3 1212.03 355.309C1203.17 355.3 1197.68 348.633 1197.66 340.495C1197.68 332.348 1203.17 325.685 1212.03 325.667V325.667Z" fill="white"/>
<path fill-rule="evenodd" clip-rule="evenodd" d="M1266.52 328.676C1263.82 324.445 1259.13 321.748 1253.03 321.748C1242.52 321.766 1233.97 330.003 1233.96 340.026C1233.97 350.05 1242.52 358.282 1253.03 358.3C1259.14 358.3 1263.83 355.603 1266.52 351.371L1266.56 351.304H1266.64H1266.93V356.424C1266.92 360.452 1266.68 373.006 1252.33 373.029C1246.75 373.029 1241.48 371.314 1237.33 367.164L1234.7 369.569C1238.34 373.913 1245.18 376.949 1252.33 376.949C1259.61 376.931 1271.31 373.899 1271.32 356.108L1271.32 322.681H1266.93V328.744H1266.79H1266.56L1266.52 328.676V328.676ZM1267.09 340.03C1267.09 347.952 1260.65 354.38 1252.72 354.384C1244.79 354.38 1238.35 347.952 1238.35 340.03C1238.35 332.105 1244.79 325.672 1252.72 325.672C1260.65 325.672 1267.09 332.105 1267.09 340.03V340.03Z" fill="white"/>
<path fill-rule="evenodd" clip-rule="evenodd" d="M1305.34 322.681L1293.66 353.149L1279.85 322.681H1274.93L1291.31 358.598L1288.02 366.957C1286.94 369.754 1284.9 373.141 1281.36 373.141C1278.96 373.141 1277.57 372.726 1276.29 372.217L1274.17 375.302C1275.95 376.331 1279.43 376.953 1281.44 376.953C1286.52 376.953 1289.67 374.062 1291.58 369.506L1310.02 322.686H1305.34V322.681Z" fill="white"/>
<path fill-rule="evenodd" clip-rule="evenodd" d="M900.358 289.187C898.769 288.614 894.032 287.125 892.009 286.489C889.982 285.844 884.229 284.18 882.549 283.674C881.94 282.858 881.294 282.195 880.788 281.703C875.207 275.767 866.714 272.226 858.058 272.226C848.224 272.226 840.859 275.469 838.335 276.746H713.567C712.42 276.746 709.932 276.746 709.932 276.746C709.932 276.746 709.932 279.515 709.932 280.377C709.932 285.84 716.235 289.958 724.598 289.958H759.984L788.634 310.186V341.208C788.634 356.509 796.708 370.349 810.218 378.247C821.524 384.861 828.343 385.388 836.077 385.388C836.633 385.388 837.188 385.384 837.762 385.379C838.34 385.379 838.927 385.375 839.532 385.375C840.511 385.375 843.166 385.375 843.166 385.375C843.166 385.375 843.166 382.772 843.166 381.744V320.814L845.587 319.032L877.063 295.845C877.063 295.845 893.608 294.821 897.802 294.55C900.132 294.402 902.76 294.181 904.593 293.964C906.278 293.766 906.964 293.233 906.964 292.796C906.964 292.268 906.652 292.06 906.26 291.767C905.935 291.519 903.438 290.301 900.358 289.187V289.187Z" fill="white"/>
<path fill-rule="evenodd" clip-rule="evenodd" d="M901.08 291.569C901.08 291.569 886.143 287.631 880.399 287.125C880.399 287.125 857.673 299.377 851.307 303.496C844.931 307.61 843.721 313.799 843.437 316.104L875.875 292.218C875.875 292.218 900.651 292.218 901.296 292.218C901.942 292.218 901.08 291.569 901.08 291.569V291.569Z" fill="black"/>
<path fill-rule="evenodd" clip-rule="evenodd" d="M848.545 301.231C855.2 296.792 878.179 284.225 878.179 284.225C878.179 284.225 878.206 284.252 878.21 284.261C874.273 280.039 867.116 275.857 858.063 275.857C846.928 275.857 839.252 280.377 839.252 280.377H713.571C713.571 283.747 718.656 286.322 724.602 286.322C729.023 286.322 761.15 286.322 761.15 286.322L792.279 308.309V341.208C792.279 355.49 799.783 367.94 812.065 375.117C824.338 382.294 830.497 381.748 839.536 381.748V318.978C839.536 313.447 841.203 306.135 848.545 301.231V301.231ZM868.385 285.921C868.385 287.179 867.355 288.203 866.1 288.203C864.84 288.203 863.815 287.179 863.815 285.921C863.815 284.667 864.845 283.643 866.1 283.643C867.355 283.643 868.385 284.667 868.385 285.921ZM839.635 295.444L853.885 287.563L860.148 288.077L839.635 299.45V295.444V295.444Z" fill="black"/>
<path fill-rule="evenodd" clip-rule="evenodd" d="M761.148 286.327H813.536C801.823 286.327 792.277 295.728 792.277 308.313L761.148 286.327V286.327Z" fill="#F0E614"/>
<path fill-rule="evenodd" clip-rule="evenodd" d="M875.323 285.804C871.183 282.281 864.663 279.06 856.928 279.06V275.879L858.061 275.857C867.105 275.857 874.24 280.016 878.177 284.225L875.323 285.804V285.804Z" fill="#E60000"/>
<path fill-rule="evenodd" clip-rule="evenodd" d="M875.872 292.218L853.173 308.941C853.173 308.941 852.902 306.496 856.32 303.739C859.734 300.983 880.401 287.13 880.401 287.13L875.872 292.218V292.218Z" fill="#E60000"/>
<path fill-rule="evenodd" clip-rule="evenodd" d="M829.999 334.956C829.999 334.956 829.999 326.989 829.999 323.768C829.999 319.068 828.08 315.811 823.7 312.716L805.146 299.616C803.064 301.89 801.805 304.935 801.805 308.323C801.805 312.545 803.832 316.285 806.952 318.662L829.999 334.956V334.956Z" fill="white"/>
<path fill-rule="evenodd" clip-rule="evenodd" d="M316.756 307.686V358.3H321.615V307.686H339.03V303.297H299.336V307.686H316.621H316.756Z" fill="white"/>
<path fill-rule="evenodd" clip-rule="evenodd" d="M360.323 321.747C354.539 321.743 349.879 324.981 348.033 328.897L347.997 328.978H347.911H347.739V303.297H343.346V358.3H347.739V340.495C347.753 330.571 353.325 325.685 360.319 325.667C367.805 325.685 369.467 331.468 369.476 337.306V358.3H373.865V337.071C373.856 329.24 371.436 321.765 360.323 321.747V321.747Z" fill="white"/>
<path fill-rule="evenodd" clip-rule="evenodd" d="M398.572 355.309C387.581 355.304 384.841 345.578 384.827 341.658V341.523H415.003V338.397C414.994 330.137 409.224 321.751 398.265 321.747C387.839 321.756 380.438 329.758 380.434 340.422C380.443 351.465 387.599 359.233 398.495 359.238C404.803 359.238 410.24 357.032 413.87 351.704L410.664 349.011C408.257 352.868 403.304 355.304 398.572 355.309V355.309ZM384.827 337.459C384.831 335.532 387.735 325.689 398.03 325.667C405.019 325.685 410.609 331.008 410.609 337.459V337.594H384.827V337.459V337.459Z" fill="white"/>
<path fill-rule="evenodd" clip-rule="evenodd" d="M457.835 317.588C455.424 314.714 451.924 313.081 447.413 313.081C438.234 313.081 431.47 320.538 431.47 330.796C431.47 341.054 438.234 348.511 447.025 348.511C451.924 348.511 455.889 346.336 458.381 342.606L468.487 350.144C463.899 356.662 456.119 359.698 448.574 359.698C431.388 359.698 418.867 348.43 418.867 330.792C418.867 313.158 431.388 301.89 448.574 301.89C454.719 301.89 462.495 303.987 467.164 309.973L457.835 317.588V317.588Z" fill="white"/>
<path fill-rule="evenodd" clip-rule="evenodd" d="M489.534 319.609C501.201 319.609 510.53 327.382 510.53 339.421C510.53 351.466 501.201 359.238 489.534 359.238C477.87 359.238 468.537 351.466 468.537 339.421C468.537 327.382 477.87 319.609 489.534 319.609V319.609ZM489.532 348.98C495.366 348.98 498.865 345.096 498.865 339.422C498.865 333.751 495.366 329.867 489.532 329.867C483.698 329.867 480.203 333.751 480.203 339.422C480.203 345.096 483.702 348.98 489.532 348.98V348.98Z" fill="white"/>
<path fill-rule="evenodd" clip-rule="evenodd" d="M514.846 320.542H526.514V326.605H526.668C529.155 322.017 532.425 319.613 537.559 319.613C538.882 319.613 540.358 319.69 541.446 320.001V330.647C539.812 330.178 538.177 329.867 536.466 329.867C527.602 329.867 526.509 334.996 526.509 342.533V358.304H514.842V320.542H514.846Z" fill="white"/>
<path fill-rule="evenodd" clip-rule="evenodd" d="M544.774 320.543H555.973V325.667H556.131C557.679 322.717 561.495 319.609 567.171 319.609C578.992 319.609 581.168 327.382 581.168 337.477V358.3H569.505V339.805C569.505 335.461 569.428 329.863 563.441 329.863C557.377 329.863 556.442 334.604 556.442 339.498V358.3H544.774V320.543V320.543Z" fill="white"/>
<path fill-rule="evenodd" clip-rule="evenodd" d="M622.082 351.772C618.352 356.518 612.207 359.234 606.143 359.234C594.479 359.234 585.142 351.461 585.142 339.417C585.142 327.377 594.475 319.604 606.143 319.604C617.029 319.604 623.87 327.377 623.87 339.417V343.075H596.809C597.744 347.5 601.085 350.374 605.596 350.374C609.407 350.374 611.972 348.43 613.918 345.786L622.082 351.772V351.772ZM612.206 335.149C612.283 331.27 609.248 328.004 605.049 328.004C599.919 328.004 597.12 331.495 596.808 335.149H612.206V335.149Z" fill="white"/>
<path fill-rule="evenodd" clip-rule="evenodd" d="M627.996 330.751V303.297H639.659V330.751V358.3H627.996V330.751V330.751Z" fill="white"/>
<path fill-rule="evenodd" clip-rule="evenodd" d="M646.51 330.751V303.297H658.173V330.751V358.3H646.51V330.751V330.751Z" fill="white"/>
<path fill-rule="evenodd" clip-rule="evenodd" d="M671.882 330.751V303.297H667.019V330.751V358.3H694.318V353.915H671.882V330.751Z" fill="white"/>
<path fill-rule="evenodd" clip-rule="evenodd" d="M725.902 334.59C725.884 325.568 720.403 321.769 711.729 321.747C707.136 321.747 701.623 323.502 698.228 326.673L700.774 329.664C703.958 326.984 707.543 325.671 711.729 325.671C717.513 325.685 721.965 328.216 721.974 334.513V336.823H716.393C712.862 336.823 707.895 337.102 703.836 338.731C699.772 340.359 696.625 343.318 696.62 348.736C696.62 356.247 703.05 359.233 709.164 359.242C715.196 359.238 719.012 357.095 721.644 352.548L721.685 352.48H721.766H722.055V352.62C722.055 354.591 722.204 356.563 722.498 358.308H726.584C726.056 354.24 725.907 350.283 725.907 343.368V334.59H725.902ZM721.974 342.822C721.974 345.831 721.328 348.953 719.418 351.334C717.503 353.703 714.325 355.313 709.326 355.313C709.326 355.313 709.322 355.313 709.317 355.313C705.389 355.304 701.022 353.035 701.018 348.497C701.045 342.209 708.929 340.287 716.709 340.287H721.978V342.822H721.974Z" fill="white"/>
<path fill-rule="evenodd" clip-rule="evenodd" d="M752.096 321.743C746.764 321.743 740.668 323.994 737.828 328.906L737.787 328.978H737.71H737.417V303.297H733.023V358.3H737.417V352.007H737.552H737.787L737.828 352.079C740.668 356.991 746.764 359.233 752.096 359.233C763.073 359.229 770.849 351.375 770.858 340.495C770.849 329.605 763.073 321.752 752.096 321.743V321.743ZM752.097 355.309C743.549 355.3 736.966 348.646 736.952 340.495C736.966 332.339 743.549 325.685 752.097 325.672C760.96 325.685 766.446 332.348 766.465 340.495C766.446 348.633 760.96 355.3 752.097 355.309V355.309Z" fill="white"/>
</g>
<defs>
<filter id="filter0_d_467_38086" x="81" y="103" width="1448" height="460" filterUnits="userSpaceOnUse" color-interpolation-filters="sRGB">
<feFlood flood-opacity="0" result="BackgroundImageFix"/>
<feColorMatrix in="SourceAlpha" type="matrix" values="0 0 0 0 0 0 0 0 0 0 0 0 0 0 0 0 0 0 127 0" result="hardAlpha"/>
<feOffset dy="4"/>
<feGaussianBlur stdDeviation="2"/>
<feComposite in2="hardAlpha" operator="out"/>
<feColorMatrix type="matrix" values="0 0 0 0 0 0 0 0 0 0 0 0 0 0 0 0 0 0 0.25 0"/>
<feBlend mode="normal" in2="BackgroundImageFix" result="effect1_dropShadow_467_38086"/>
<feBlend mode="normal" in="SourceGraphic" in2="effect1_dropShadow_467_38086" result="shape"/>
</filter>
<filter id="filter1_dd_467_38086" x="0.55555" y="43.8889" width="1608.89" height="620.889" filterUnits="userSpaceOnUse" color-interpolation-filters="sRGB">
<feFlood flood-opacity="0" result="BackgroundImageFix"/>
<feColorMatrix in="SourceAlpha" type="matrix" values="0 0 0 0 0 0 0 0 0 0 0 0 0 0 0 0 0 0 127 0" result="hardAlpha"/>
<feOffset dy="25.3333"/>
<feGaussianBlur stdDeviation="42.2222"/>
<feComposite in2="hardAlpha" operator="out"/>
<feColorMatrix type="matrix" values="0 0 0 0 0.368627 0 0 0 0 0.596078 0 0 0 0 0.0588235 0 0 0 0.3 0"/>
<feBlend mode="normal" in2="BackgroundImageFix" result="effect1_dropShadow_467_38086"/>
<feColorMatrix in="SourceAlpha" type="matrix" values="0 0 0 0 0 0 0 0 0 0 0 0 0 0 0 0 0 0 127 0" result="hardAlpha"/>
<feOffset dy="8.44444"/>
<feGaussianBlur stdDeviation="12.6667"/>
<feComposite in2="hardAlpha" operator="out"/>
<feColorMatrix type="matrix" values="0 0 0 0 0.305882 0 0 0 0 0.482353 0 0 0 0 0.0666667 0 0 0 1 0"/>
<feBlend mode="normal" in2="effect1_dropShadow_467_38086" result="effect2_dropShadow_467_38086"/>
<feBlend mode="normal" in="SourceGraphic" in2="effect2_dropShadow_467_38086" result="shape"/>
</filter>
<filter id="filter2_d_467_38086" x="142" y="103" width="1365" height="460" filterUnits="userSpaceOnUse" color-interpolation-filters="sRGB">
<feFlood flood-opacity="0" result="BackgroundImageFix"/>
<feColorMatrix in="SourceAlpha" type="matrix" values="0 0 0 0 0 0 0 0 0 0 0 0 0 0 0 0 0 0 127 0" result="hardAlpha"/>
<feOffset dy="4"/>
<feGaussianBlur stdDeviation="2"/>
<feComposite in2="hardAlpha" operator="out"/>
<feColorMatrix type="matrix" values="0 0 0 0 0 0 0 0 0 0 0 0 0 0 0 0 0 0 0.25 0"/>
<feBlend mode="normal" in2="BackgroundImageFix" result="effect1_dropShadow_467_38086"/>
<feBlend mode="normal" in="SourceGraphic" in2="effect1_dropShadow_467_38086" result="shape"/>
</filter>
<filter id="filter3_d_467_38086" x="81" y="103" width="1448" height="460" filterUnits="userSpaceOnUse" color-interpolation-filters="sRGB">
<feFlood flood-opacity="0" result="BackgroundImageFix"/>
<feColorMatrix in="SourceAlpha" type="matrix" values="0 0 0 0 0 0 0 0 0 0 0 0 0 0 0 0 0 0 127 0" result="hardAlpha"/>
<feOffset dy="4"/>
<feGaussianBlur stdDeviation="2"/>
<feComposite in2="hardAlpha" operator="out"/>
<feColorMatrix type="matrix" values="0 0 0 0 0 0 0 0 0 0 0 0 0 0 0 0 0 0 0.25 0"/>
<feBlend mode="normal" in2="BackgroundImageFix" result="effect1_dropShadow_467_38086"/>
<feBlend mode="normal" in="SourceGraphic" in2="effect1_dropShadow_467_38086" result="shape"/>
</filter>
<filter id="filter4_d_467_38086" x="294" y="272" width="1022.71" height="123" filterUnits="userSpaceOnUse" color-interpolation-filters="sRGB">
<feFlood flood-opacity="0" result="BackgroundImageFix"/>
<feColorMatrix in="SourceAlpha" type="matrix" values="0 0 0 0 0 0 0 0 0 0 0 0 0 0 0 0 0 0 127 0" result="hardAlpha"/>
<feOffset dy="4"/>
<feGaussianBlur stdDeviation="2"/>
<feComposite in2="hardAlpha" operator="out"/>
<feColorMatrix type="matrix" values="0 0 0 0 0 0 0 0 0 0 0 0 0 0 0 0 0 0 0.25 0"/>
<feBlend mode="normal" in2="BackgroundImageFix" result="effect1_dropShadow_467_38086"/>
<feBlend mode="normal" in="SourceGraphic" in2="effect1_dropShadow_467_38086" result="shape"/>
</filter>
<clipPath id="clip0_467_38086">
<rect width="218.14" height="218.14" fill="white" transform="translate(1199.49 184.144) rotate(-34.688)"/>
</clipPath>
<clipPath id="clip1_467_38086">
<rect width="216.973" height="216.973" fill="white" transform="translate(578.701 33.2083) rotate(9.06408)"/>
</clipPath>
</defs>
</svg>
