<svg width="1216" height="480" viewBox="0 0 1216 480" fill="none" xmlns="http://www.w3.org/2000/svg">
<g clip-path="url(#clip0)">
<rect width="1216" height="480" rx="50" fill="#4E7B11"/>
<path fill-rule="evenodd" clip-rule="evenodd" d="M658.459 254.787C658.462 263.051 664.377 269.021 672.714 269.025C681.054 269.021 686.965 263.051 686.969 254.787C686.969 246.51 681.054 240.546 672.714 240.542C664.374 240.546 658.462 246.513 658.459 254.787V254.787ZM672.713 243.521C679.448 243.534 683.62 248.597 683.63 254.787C683.62 260.97 679.448 266.036 672.713 266.043C665.979 266.036 661.807 260.97 661.797 254.787C661.807 248.597 665.979 243.534 672.713 243.521V243.521Z" fill="white"/>
<path fill-rule="evenodd" clip-rule="evenodd" d="M692.982 268.316H696.32V245.376H702.702V242.39H696.32V235.741C696.324 230.83 697.892 228.386 701.209 228.375C702.513 228.375 703.501 228.54 704.328 228.92L704.986 226.058C703.957 225.616 702.695 225.394 701.031 225.394C697.583 225.404 692.986 227.471 692.979 234.442V242.39H687.308V245.376H692.876H692.979V268.316H692.982Z" fill="white"/>
<path fill-rule="evenodd" clip-rule="evenodd" d="M713.184 247.524C713.187 260.223 721.994 269.378 734.705 269.381C747.416 269.378 756.223 260.223 756.226 247.524C756.223 234.822 747.416 225.674 734.705 225.671C721.994 225.671 713.187 234.822 713.184 247.524V247.524ZM734.705 229.003C740.198 229.003 744.654 231.025 747.746 234.353C750.826 237.678 752.535 242.311 752.535 247.528C752.535 252.745 750.826 257.372 747.746 260.707C744.661 264.028 740.201 266.05 734.712 266.05C734.712 266.05 734.709 266.05 734.705 266.05C729.212 266.05 724.752 264.031 721.665 260.707C718.58 257.372 716.875 252.748 716.875 247.528C716.875 242.315 718.584 237.678 721.665 234.353C724.752 231.025 729.216 229.003 734.705 229.003V229.003Z" fill="white"/>
<path fill-rule="evenodd" clip-rule="evenodd" d="M764.415 245.978L764.281 246.215L764.223 245.951C764.099 245.399 764.044 243.236 763.986 241.249H760.645C760.655 242.753 760.94 246.856 760.94 248.82V268.315H764.278V253.543C764.285 248.199 767.101 243.888 773.304 243.877C773.64 243.877 774.079 243.929 774.573 244.083L774.961 240.813C774.292 240.649 773.675 240.542 773.006 240.542C768.971 240.542 766.175 242.811 764.415 245.978V245.978Z" fill="white"/>
<path fill-rule="evenodd" clip-rule="evenodd" d="M791.147 240.542C786.756 240.539 783.305 243 781.905 245.975L781.877 246.033H781.812H781.552L781.534 245.954C781.411 245.399 781.356 243.24 781.298 241.252H777.956C777.97 242.753 778.251 246.859 778.251 248.823V268.319H781.589V254.79C781.6 247.25 785.837 243.538 791.147 243.524C796.836 243.538 798.102 247.936 798.105 252.367V268.319H801.443V252.189C801.429 246.235 799.594 240.553 791.147 240.542V240.542Z" fill="white"/>
<path fill-rule="evenodd" clip-rule="evenodd" d="M808.826 230.244C808.826 231.663 809.958 232.794 811.382 232.794C812.802 232.794 813.935 231.663 813.938 230.244C813.935 228.821 812.799 227.69 811.382 227.687C809.962 227.69 808.826 228.821 808.826 230.244V230.244Z" fill="white"/>
<path fill-rule="evenodd" clip-rule="evenodd" d="M809.711 254.866V268.316H813.053V254.866V241.252H809.711V254.866Z" fill="white"/>
<path fill-rule="evenodd" clip-rule="evenodd" d="M831.239 266.043C828.828 266.04 827.356 264.566 827.352 262.105V244.234H835.154V241.252H827.352V233.4H824.014V241.252H818.106V244.234H824.014V262.105C824.028 265.971 825.911 269.018 830.944 269.028C832.252 269.028 834.156 268.576 835.442 268.117L835.168 265.152C833.95 265.656 832.571 266.043 831.239 266.043V266.043Z" fill="white"/>
<path fill-rule="evenodd" clip-rule="evenodd" d="M853.286 240.543C848.895 240.54 845.444 243.001 844.044 245.976L844.016 246.037H843.951H843.728V226.525H840.394V268.316H843.728V254.788C843.739 247.247 847.976 243.535 853.29 243.525C858.982 243.535 860.241 247.933 860.247 252.364V268.316H863.586V252.186C863.565 246.24 861.73 240.553 853.286 240.543V240.543Z" fill="white"/>
<path fill-rule="evenodd" clip-rule="evenodd" d="M867.235 254.787C867.239 263.051 873.157 269.021 881.49 269.025C889.83 269.021 895.745 263.051 895.749 254.787C895.745 246.51 889.83 240.546 881.49 240.542C873.153 240.546 867.239 246.513 867.235 254.787V254.787ZM881.49 243.524C888.225 243.535 892.397 248.597 892.411 254.787C892.4 260.97 888.225 266.036 881.49 266.043C874.759 266.036 870.584 260.97 870.577 254.787C870.584 248.597 874.759 243.535 881.49 243.524V243.524Z" fill="white"/>
<path fill-rule="evenodd" clip-rule="evenodd" d="M900.058 247.384V268.316H903.399V247.384V226.525H900.058V247.384Z" fill="white"/>
<path fill-rule="evenodd" clip-rule="evenodd" d="M907.708 254.787C907.715 263.054 913.626 269.021 921.963 269.025C930.303 269.021 936.214 263.054 936.218 254.787C936.214 246.51 930.3 240.546 921.963 240.542C913.626 240.546 907.715 246.513 907.708 254.787V254.787ZM921.962 243.521C928.697 243.534 932.865 248.597 932.879 254.787C932.865 260.97 928.697 266.036 921.962 266.043C915.227 266.036 911.056 260.97 911.042 254.787C911.056 248.597 915.227 243.534 921.962 243.521V243.521Z" fill="white"/>
<path fill-rule="evenodd" clip-rule="evenodd" d="M963.366 245.807C961.314 242.592 957.75 240.542 953.115 240.542C945.131 240.556 938.633 246.815 938.623 254.431C938.633 262.046 945.128 268.301 953.115 268.315C957.753 268.315 961.318 266.266 963.366 263.051L963.397 262.999H963.455H963.675V266.889C963.664 269.95 963.482 279.489 952.583 279.506C948.342 279.506 944.339 278.203 941.182 275.05L939.189 276.877C941.951 280.178 947.145 282.484 952.579 282.484C958.11 282.471 967.002 280.167 967.013 266.649L967.009 241.252H963.671V245.858H963.568H963.393L963.366 245.807V245.807ZM963.795 254.434C963.795 260.453 958.902 265.337 952.878 265.34C946.853 265.337 941.961 260.453 941.961 254.434C941.961 248.412 946.853 243.524 952.878 243.524C958.902 243.524 963.795 248.412 963.795 254.434V254.434Z" fill="white"/>
<path fill-rule="evenodd" clip-rule="evenodd" d="M992.856 241.252L983.981 264.401L973.49 241.252H969.754L982.2 268.542L979.703 274.893C978.876 277.018 977.325 279.592 974.642 279.592C972.814 279.592 971.757 279.277 970.786 278.889L969.174 281.234C970.526 282.015 973.174 282.488 974.701 282.488C978.557 282.488 980.952 280.291 982.406 276.829L996.414 241.256H992.856V241.252Z" fill="white"/>
<path fill-rule="evenodd" clip-rule="evenodd" d="M685.154 215.803C683.946 215.368 680.347 214.237 678.81 213.754C677.27 213.264 672.899 211.999 671.623 211.615C671.16 210.995 670.669 210.491 670.285 210.117C666.044 205.607 659.591 202.916 653.014 202.916C645.542 202.916 639.947 205.38 638.029 206.35H543.23C542.358 206.35 540.468 206.35 540.468 206.35C540.468 206.35 540.468 208.455 540.468 209.109C540.468 213.26 545.257 216.389 551.611 216.389H578.498L600.266 231.758V255.329C600.266 266.955 606.4 277.47 616.665 283.472C625.256 288.496 630.436 288.897 636.313 288.897C636.735 288.897 637.157 288.894 637.593 288.89C638.032 288.89 638.478 288.887 638.938 288.887C639.682 288.887 641.7 288.887 641.7 288.887C641.7 288.887 641.7 286.909 641.7 286.128V239.833L643.539 238.479L667.455 220.862C667.455 220.862 680.025 220.084 683.212 219.878C684.982 219.765 686.979 219.597 688.372 219.433C689.652 219.282 690.173 218.878 690.173 218.545C690.173 218.144 689.936 217.987 689.638 217.764C689.391 217.575 687.494 216.65 685.154 215.803V215.803Z" fill="white"/>
<path fill-rule="evenodd" clip-rule="evenodd" d="M685.703 217.613C685.703 217.613 674.354 214.621 669.99 214.237C669.99 214.237 652.723 223.546 647.885 226.676C643.041 229.801 642.121 234.504 641.905 236.255L666.552 218.107C666.552 218.107 685.377 218.107 685.867 218.107C686.358 218.107 685.703 217.613 685.703 217.613V217.613Z" fill="black"/>
<path fill-rule="evenodd" clip-rule="evenodd" d="M645.786 224.955C650.843 221.582 668.302 212.033 668.302 212.033C668.302 212.033 668.323 212.054 668.326 212.061C665.335 208.853 659.897 205.675 653.018 205.675C644.558 205.675 638.726 209.11 638.726 209.11H543.233C543.233 211.67 547.096 213.627 551.615 213.627C554.974 213.627 579.383 213.627 579.383 213.627L603.035 230.332V255.329C603.035 266.18 608.737 275.64 618.069 281.093C627.394 286.546 632.073 286.131 638.942 286.131V238.438C638.942 234.236 640.208 228.68 645.786 224.955V224.955ZM660.86 213.322C660.86 214.278 660.078 215.056 659.124 215.056C658.167 215.056 657.388 214.278 657.388 213.322C657.388 212.369 658.171 211.591 659.124 211.591C660.078 211.591 660.86 212.369 660.86 213.322ZM639.016 220.557L649.844 214.57L654.602 214.96L639.016 223.601V220.557V220.557Z" fill="black"/>
<path fill-rule="evenodd" clip-rule="evenodd" d="M579.383 213.63H619.187C610.287 213.63 603.035 220.773 603.035 230.336L579.383 213.63V213.63Z" fill="#F0E614"/>
<path fill-rule="evenodd" clip-rule="evenodd" d="M666.132 213.233C662.986 210.556 658.032 208.109 652.155 208.109V205.692L653.016 205.675C659.888 205.675 665.309 208.835 668.301 212.033L666.132 213.233V213.233Z" fill="#E60000"/>
<path fill-rule="evenodd" clip-rule="evenodd" d="M666.549 218.106L649.303 230.812C649.303 230.812 649.097 228.954 651.694 226.86C654.288 224.766 669.99 214.24 669.99 214.24L666.549 218.106V218.106Z" fill="#E60000"/>
<path fill-rule="evenodd" clip-rule="evenodd" d="M631.694 250.578C631.694 250.578 631.694 244.525 631.694 242.078C631.694 238.507 630.236 236.032 626.908 233.681L612.811 223.728C611.23 225.455 610.272 227.769 610.272 230.343C610.272 233.551 611.813 236.392 614.184 238.198L631.694 250.578V250.578Z" fill="white"/>
<path fill-rule="evenodd" clip-rule="evenodd" d="M241.733 229.859V268.315H245.425V229.859H258.657V226.524H228.497V229.859H241.63H241.733Z" fill="white"/>
<path fill-rule="evenodd" clip-rule="evenodd" d="M274.837 240.543C270.442 240.539 266.902 243 265.499 245.975L265.471 246.037H265.406H265.276V226.524H261.938V268.315H265.276V254.787C265.286 247.247 269.52 243.535 274.834 243.521C280.522 243.535 281.785 247.929 281.791 252.364V268.315H285.126V252.186C285.119 246.236 283.28 240.556 274.837 240.543V240.543Z" fill="white"/>
<path fill-rule="evenodd" clip-rule="evenodd" d="M303.895 266.043C295.544 266.039 293.462 258.65 293.451 255.671V255.568H316.379V253.193C316.372 246.918 311.988 240.546 303.661 240.542C295.74 240.549 290.117 246.63 290.113 254.732C290.12 263.123 295.558 269.025 303.836 269.028C308.629 269.028 312.76 267.352 315.518 263.304L313.082 261.258C311.254 264.189 307.49 266.039 303.895 266.043V266.043ZM293.452 252.48C293.455 251.017 295.661 243.538 303.483 243.521C308.794 243.534 313.041 247.579 313.041 252.48V252.583H293.452V252.48V252.48Z" fill="white"/>
<path fill-rule="evenodd" clip-rule="evenodd" d="M348.924 237.383C347.092 235.199 344.433 233.959 341.006 233.959C334.031 233.959 328.892 239.624 328.892 247.418C328.892 255.212 334.031 260.878 340.711 260.878C344.433 260.878 347.445 259.226 349.339 256.391L357.017 262.119C353.532 267.071 347.62 269.378 341.887 269.378C328.83 269.378 319.316 260.816 319.316 247.415C319.316 234.017 328.83 225.455 341.887 225.455C346.557 225.455 352.465 227.049 356.012 231.597L348.924 237.383V237.383Z" fill="white"/>
<path fill-rule="evenodd" clip-rule="evenodd" d="M373.009 238.918C381.874 238.918 388.962 244.824 388.962 253.972C388.962 263.123 381.874 269.029 373.009 269.029C364.147 269.029 357.056 263.123 357.056 253.972C357.056 244.824 364.147 238.918 373.009 238.918V238.918ZM373.009 261.234C377.442 261.234 380.101 258.283 380.101 253.972C380.101 249.663 377.442 246.712 373.009 246.712C368.577 246.712 365.921 249.663 365.921 253.972C365.921 258.283 368.58 261.234 373.009 261.234V261.234Z" fill="white"/>
<path fill-rule="evenodd" clip-rule="evenodd" d="M392.241 239.627H401.106V244.234H401.223C403.113 240.748 405.597 238.921 409.498 238.921C410.503 238.921 411.625 238.98 412.451 239.216V247.305C411.209 246.948 409.968 246.712 408.667 246.712C401.933 246.712 401.102 250.609 401.102 256.336V268.319H392.237V239.627H392.241Z" fill="white"/>
<path fill-rule="evenodd" clip-rule="evenodd" d="M414.98 239.628H423.489V243.522H423.609C424.786 241.28 427.685 238.918 431.997 238.918C440.979 238.918 442.633 244.824 442.633 252.495V268.316H433.771V254.263C433.771 250.963 433.713 246.709 429.163 246.709C424.556 246.709 423.846 250.311 423.846 254.03V268.316H414.98V239.628V239.628Z" fill="white"/>
<path fill-rule="evenodd" clip-rule="evenodd" d="M473.719 263.356C470.885 266.961 466.215 269.025 461.608 269.025C452.746 269.025 445.651 263.119 445.651 253.968C445.651 244.82 452.743 238.915 461.608 238.915C469.88 238.915 475.077 244.82 475.077 253.968V256.748H454.516C455.227 260.11 457.765 262.293 461.193 262.293C464.088 262.293 466.037 260.816 467.516 258.808L473.719 263.356V263.356ZM466.216 250.726C466.274 247.778 463.969 245.297 460.778 245.297C456.881 245.297 454.753 247.95 454.517 250.726H466.216V250.726Z" fill="white"/>
<path fill-rule="evenodd" clip-rule="evenodd" d="M478.213 247.384V226.524H487.075V247.384V268.315H478.213V247.384V247.384Z" fill="white"/>
<path fill-rule="evenodd" clip-rule="evenodd" d="M492.279 247.384V226.524H501.141V247.384V268.315H492.279V247.384V247.384Z" fill="white"/>
<path fill-rule="evenodd" clip-rule="evenodd" d="M511.557 247.384V226.524H507.862V247.384V268.315H528.605V264.984H511.557V247.384Z" fill="white"/>
<path fill-rule="evenodd" clip-rule="evenodd" d="M552.603 250.3C552.589 243.446 548.424 240.56 541.834 240.542C538.345 240.542 534.156 241.876 531.576 244.285L533.511 246.558C535.93 244.522 538.654 243.524 541.834 243.524C546.229 243.535 549.611 245.457 549.618 250.242V251.997H545.378C542.695 251.997 538.921 252.21 535.837 253.447C532.749 254.684 530.358 256.933 530.354 261.049C530.354 266.756 535.24 269.025 539.885 269.032C544.469 269.028 547.368 267.4 549.368 263.945L549.399 263.894H549.46H549.68V264C549.68 265.498 549.793 266.996 550.016 268.322H553.121C552.72 265.23 552.607 262.225 552.607 256.97V250.3H552.603ZM549.618 256.555C549.618 258.842 549.128 261.213 547.676 263.023C546.222 264.822 543.806 266.046 540.009 266.046C540.009 266.046 540.005 266.046 540.002 266.046C537.017 266.039 533.699 264.315 533.696 260.867C533.717 256.089 539.707 254.629 545.618 254.629H549.622V256.555H549.618Z" fill="white"/>
<path fill-rule="evenodd" clip-rule="evenodd" d="M572.505 240.539C568.454 240.539 563.822 242.25 561.664 245.982L561.633 246.037H561.575H561.352V226.524H558.014V268.315H561.352V263.534H561.455H561.633L561.664 263.589C563.822 267.321 568.454 269.025 572.505 269.025C580.845 269.021 586.753 263.054 586.76 254.787C586.753 246.513 580.845 240.546 572.505 240.539V240.539ZM572.506 266.043C566.011 266.036 561.009 260.98 560.999 254.787C561.009 248.59 566.011 243.535 572.506 243.524C579.24 243.535 583.409 248.597 583.422 254.787C583.409 260.97 579.24 266.036 572.506 266.043V266.043Z" fill="white"/>
<g clip-path="url(#clip1)">
<path d="M1049.77 152.243C1044.05 143.988 1046.11 132.664 1054.37 126.951L1114.16 85.569C1122.41 79.8554 1133.74 81.9157 1139.45 90.1709L1201.52 179.855C1207.24 188.11 1205.18 199.434 1196.92 205.148L1137.13 246.53C1128.88 252.243 1117.55 250.183 1111.84 241.928L1049.77 152.243Z" fill="#5E980F"/>
<path d="M1063.57 76.3651C1055.32 82.0787 1053.26 93.4027 1058.97 101.658L1118.76 60.2762C1127.02 54.5626 1138.34 56.623 1144.05 64.8782L1216.47 169.51C1224.73 163.796 1226.79 152.472 1221.07 144.217L1148.65 39.5853C1142.94 31.3301 1131.62 29.2698 1123.36 34.9834L1063.57 76.3651Z" fill="#5E980F"/>
</g>
<path d="M176.836 98.8561C189.913 106.371 188.955 124.69 175.166 130.8L45.841 188.099C32.8359 193.861 17.9966 184.325 18.7111 170.664L25.3939 42.8879C26.1084 29.2276 41.8615 21.2915 54.1945 28.3788L176.836 98.8561Z" fill="#5E980F"/>
<path d="M-35.3607 350.847C-40.1414 348.493 -42.1089 342.71 -39.7553 337.929C-37.4017 333.149 -31.6182 331.181 -26.8375 333.535L158.406 424.733C163.187 427.086 165.154 432.87 162.801 437.651C160.447 442.431 154.663 444.399 149.883 442.045L-35.3607 350.847Z" fill="#5E980F"/>
<path d="M115.779 299.43C118.132 294.649 116.165 288.865 111.384 286.512C106.603 284.158 100.82 286.126 98.466 290.906L7.26785 476.15C4.91424 480.931 6.88179 486.714 11.6625 489.068C16.4432 491.421 22.2267 489.454 24.5803 484.673L115.779 299.43Z" fill="#5E980F"/>
<path d="M946.127 345.257C947.339 350.145 944.36 355.09 939.472 356.302L912.922 362.886C903.147 365.31 897.187 375.2 899.612 384.976L921.559 473.475C923.984 483.251 933.873 489.21 943.649 486.786L1032.15 464.838C1041.92 462.414 1047.88 452.524 1045.46 442.749L1038.87 416.199C1037.66 411.311 1040.64 406.366 1045.53 405.154C1050.42 403.942 1055.36 406.922 1056.57 411.809L1067.55 456.059C1069.97 465.835 1064.01 475.724 1054.24 478.149L930.338 508.875C920.563 511.299 910.673 505.34 908.249 495.565L877.522 371.665C875.098 361.89 881.057 352 890.833 349.576L935.083 338.602C939.97 337.39 944.915 340.37 946.127 345.257Z" fill="#5E980F"/>
<path d="M991.178 361.607C994.427 356.215 1001.43 354.478 1006.82 357.727C1012.21 360.976 1013.95 367.98 1010.7 373.372L987.666 411.602C984.417 416.993 977.413 418.73 972.021 415.482C966.63 412.233 964.893 405.228 968.142 399.837L991.178 361.607Z" fill="#5E980F"/>
<path d="M1023.37 322.983C1026.28 321.66 1029.62 323.669 1029.81 326.861L1033.06 381.169C1033.28 384.833 1029.3 387.241 1026.16 385.347L973.368 353.537C970.225 351.642 970.494 346.999 973.836 345.481L1023.37 322.983Z" fill="#5E980F"/>
<g clip-path="url(#clip2)">
<path d="M501.329 29.7702C508.03 24.9127 517.401 26.4076 522.258 33.1091C527.116 39.8107 525.621 49.1811 518.919 54.0386L480.09 82.1836C473.388 87.0411 464.018 85.5462 459.16 78.8447C454.303 72.1432 455.798 62.7727 462.499 57.9152L501.329 29.7702Z" fill="#5E980F"/>
<path d="M562.279 -0.500288C565.449 -0.579659 567.713 2.54428 566.651 5.53212L541.042 77.6016C539.823 81.0309 535.258 81.6876 533.122 78.7409L482.272 8.58593C480.136 5.63922 482.18 1.50531 485.818 1.41421L562.279 -0.500288Z" fill="#5E980F"/>
<path d="M395.013 142.783C388.312 147.64 378.943 146.145 374.086 139.444C369.229 132.744 370.724 123.374 377.425 118.517L416.275 90.3569C422.976 85.5 432.345 86.9946 437.202 93.6954C442.059 100.396 440.565 109.765 433.864 114.622L395.013 142.783Z" fill="#5E980F"/>
<path d="M334.054 173.062C330.884 173.142 328.619 170.017 329.681 167.029L355.31 94.9513C356.529 91.5226 361.093 90.8664 363.229 93.8128L414.074 163.961C416.21 166.907 414.166 171.041 410.528 171.133L334.054 173.062Z" fill="#5E980F"/>
</g>
<path fill-rule="evenodd" clip-rule="evenodd" d="M856.643 131.904C883.116 104.566 882.415 60.9425 855.077 34.4688C827.738 7.99512 784.115 8.69618 757.641 36.0346C731.168 63.3731 731.869 106.996 759.207 133.47C786.546 159.944 830.169 159.243 856.643 131.904ZM869.018 143.888C902.11 109.715 901.234 55.1857 867.061 22.0936C832.887 -10.9985 778.358 -10.1221 745.266 24.0509C712.174 58.224 713.05 112.753 747.223 145.845C781.397 178.937 835.926 178.061 869.018 143.888Z" fill="#5E980F"/>
<path fill-rule="evenodd" clip-rule="evenodd" d="M836.318 4.3138L728.465 115.69L740.84 127.674L848.694 16.2975L836.318 4.3138Z" fill="#5E980F"/>
<path fill-rule="evenodd" clip-rule="evenodd" d="M873.444 40.2649L765.591 151.641L777.966 163.625L885.819 52.2486L873.444 40.2649Z" fill="#5E980F"/>
<path fill-rule="evenodd" clip-rule="evenodd" d="M855.826 110.171C851.111 96.7481 840.7 80.4957 825.118 65.4067C809.536 50.3177 792.957 40.4338 779.389 36.1522C764.723 31.5239 758.93 34.704 757.641 36.0346C756.353 37.3653 753.361 43.2576 758.458 57.7677C763.173 71.1909 773.585 87.4432 789.166 102.532C804.748 117.621 821.327 127.505 834.895 131.787C849.561 136.415 855.354 133.235 856.643 131.904C857.931 130.574 860.924 124.681 855.826 110.171ZM869.018 143.888C885.564 126.801 871.274 86.1236 837.101 53.0315C802.928 19.9395 761.812 6.96439 745.266 24.0509C728.72 41.1375 743.01 81.8153 777.183 114.907C811.356 147.999 852.472 160.975 869.018 143.888Z" fill="#5E980F"/>
<path d="M439.961 360.345C440.681 358.664 442.334 357.574 444.163 357.574H511.282C513.111 357.574 514.764 358.664 515.484 360.345L525.281 383.204C526.574 386.221 524.361 389.577 521.079 389.577H434.366C431.084 389.577 428.871 386.221 430.164 383.204L439.961 360.345Z" fill="#5E980F"/>
<path fill-rule="evenodd" clip-rule="evenodd" d="M404.574 385.005C394.474 385.005 386.287 393.192 386.287 403.292V485.584C386.287 495.683 394.474 503.871 404.574 503.871H550.871C560.971 503.871 569.158 495.683 569.158 485.584V403.292C569.158 393.192 560.971 385.005 550.871 385.005H404.574ZM477.723 476.44C497.922 476.44 514.297 460.065 514.297 439.866C514.297 419.667 497.922 403.292 477.723 403.292C457.523 403.292 441.148 419.667 441.148 439.866C441.148 460.065 457.523 476.44 477.723 476.44Z" fill="#5E980F"/>
</g>
<defs>
<clipPath id="clip0">
<rect width="1216" height="480" rx="50" fill="white"/>
</clipPath>
<clipPath id="clip1">
<rect width="218.14" height="218.14" fill="white" transform="translate(978.486 113.145) rotate(-34.688)"/>
</clipPath>
<clipPath id="clip2">
<rect width="216.973" height="216.973" fill="white" transform="translate(357.7 -37.791) rotate(9.06408)"/>
</clipPath>
</defs>
</svg>
