<svg width="1003" height="115" viewBox="0 0 1003 115" fill="none" xmlns="http://www.w3.org/2000/svg">
<path fill-rule="evenodd" clip-rule="evenodd" d="M560.22 68.4938C560.224 79.3698 567.913 87.2279 578.749 87.2325C589.591 87.2279 597.275 79.3698 597.279 68.4938C597.279 57.5997 589.591 49.7506 578.749 49.7461C567.908 49.7506 560.224 57.6042 560.22 68.4938ZM578.748 53.6658C587.503 53.6838 592.926 60.3466 592.939 68.4934C592.926 76.6313 587.503 83.2985 578.748 83.3075C569.994 83.2985 564.571 76.6313 564.558 68.4934C564.571 60.3466 569.994 53.6838 578.748 53.6658Z" fill="white"/>
<path fill-rule="evenodd" clip-rule="evenodd" d="M605.098 86.2993H609.437V56.1072H617.732V52.1781H609.437V43.4268C609.442 36.9625 611.48 33.7462 615.792 33.7327C617.487 33.7327 618.771 33.9492 619.846 34.4499L620.702 30.6832C619.364 30.1013 617.723 29.8081 615.56 29.8081C611.078 29.8216 605.102 32.5418 605.093 41.7171V52.1781H597.722V56.1072H604.96H605.093V86.2993H605.098Z" fill="white"/>
<path fill-rule="evenodd" clip-rule="evenodd" d="M631.354 58.9349C631.359 75.6482 642.807 87.697 659.33 87.7016C675.853 87.697 687.3 75.6482 687.305 58.9349C687.3 42.2172 675.853 30.1774 659.33 30.1729C642.807 30.1729 631.359 42.2172 631.354 58.9349ZM659.329 34.5575C666.469 34.5575 672.262 37.219 676.28 41.5991C680.285 45.9748 682.505 52.0737 682.505 58.9394C682.505 65.8051 680.285 71.895 676.28 76.2842C672.271 80.6553 666.473 83.3168 659.338 83.3168C659.338 83.3168 659.333 83.3168 659.329 83.3168C652.189 83.3168 646.391 80.6598 642.378 76.2842C638.369 71.895 636.152 65.8097 636.152 58.9394C636.152 52.0782 638.373 45.9748 642.378 41.5991C646.391 37.219 652.193 34.5575 659.329 34.5575Z" fill="white"/>
<path fill-rule="evenodd" clip-rule="evenodd" d="M697.951 56.9005L697.777 57.2118L697.701 56.8644C697.541 56.1382 697.469 53.2917 697.393 50.6754H693.05C693.063 52.6557 693.433 58.0553 693.433 60.6401V86.2987H697.773V66.8563C697.781 59.8237 701.443 54.1488 709.506 54.1353C709.943 54.1353 710.514 54.203 711.156 54.406L711.66 50.1025C710.79 49.8859 709.987 49.7461 709.118 49.7461C703.873 49.7461 700.239 52.7324 697.951 56.9005Z" fill="white"/>
<path fill-rule="evenodd" clip-rule="evenodd" d="M732.699 49.7461C726.991 49.7416 722.504 52.9805 720.685 56.896L720.649 56.9727H720.564H720.225L720.203 56.869C720.043 56.1382 719.971 53.2963 719.895 50.6799H715.552C715.57 52.6557 715.935 58.0599 715.935 60.6447V86.3032H720.274V68.4983C720.288 58.5741 725.795 53.6887 732.699 53.6707C740.093 53.6887 741.739 59.4763 741.743 65.309V86.3032H746.082V65.0745C746.064 57.2389 743.679 49.7596 732.699 49.7461Z" fill="white"/>
<path fill-rule="evenodd" clip-rule="evenodd" d="M755.681 36.1914C755.681 38.0589 757.152 39.5476 759.003 39.5476C760.849 39.5476 762.321 38.0589 762.326 36.1914C762.321 34.3193 760.845 32.8307 759.003 32.8262C757.157 32.8307 755.681 34.3193 755.681 36.1914Z" fill="white"/>
<path fill-rule="evenodd" clip-rule="evenodd" d="M756.83 68.5978V86.299H761.174V68.5978V50.6802H756.83V68.5978Z" fill="white"/>
<path fill-rule="evenodd" clip-rule="evenodd" d="M784.816 83.3084C781.68 83.3039 779.767 81.3642 779.763 78.1253V54.605H789.904V50.6804H779.763V40.3457H775.424V50.6804H767.744V54.605H775.424V78.1253C775.441 83.2137 777.89 87.224 784.432 87.2375C786.131 87.2375 788.606 86.642 790.279 86.0376L789.922 82.1356C788.339 82.7987 786.546 83.3084 784.816 83.3084Z" fill="white"/>
<path fill-rule="evenodd" clip-rule="evenodd" d="M813.473 49.7468C807.765 49.7423 803.278 52.9812 801.459 56.8968L801.423 56.978H801.338H801.049V31.2969H796.714V86.2994H801.049V68.4945C801.062 58.5703 806.57 53.6849 813.478 53.6714C820.876 53.6849 822.513 59.4725 822.522 65.3053V86.2994H826.861V65.0707C826.834 57.2441 824.448 49.7604 813.473 49.7468Z" fill="white"/>
<path fill-rule="evenodd" clip-rule="evenodd" d="M831.605 68.4938C831.61 79.3698 839.303 87.2279 850.135 87.2325C860.977 87.2279 868.665 79.3698 868.669 68.4938C868.665 57.5997 860.977 49.7506 850.135 49.7461C839.298 49.7506 831.61 57.6042 831.605 68.4938ZM850.135 53.6708C858.889 53.6843 864.312 60.347 864.33 68.4939C864.317 76.6317 858.889 83.299 850.135 83.308C841.385 83.299 835.958 76.6317 835.949 68.4939C835.958 60.347 841.385 53.6843 850.135 53.6708Z" fill="white"/>
<path fill-rule="evenodd" clip-rule="evenodd" d="M874.27 58.7508V86.2994H878.613V58.7508V31.2969H874.27V58.7508Z" fill="white"/>
<path fill-rule="evenodd" clip-rule="evenodd" d="M884.216 68.4938C884.225 79.3743 891.909 87.2279 902.746 87.2325C913.587 87.2279 921.271 79.3743 921.275 68.4938C921.271 57.5997 913.582 49.7506 902.746 49.7461C891.909 49.7506 884.225 57.6042 884.216 68.4938ZM902.746 53.6658C911.501 53.6838 916.919 60.3466 916.937 68.4934C916.919 76.6313 911.501 83.2985 902.746 83.3075C893.992 83.2985 888.569 76.6313 888.551 68.4934C888.569 60.3466 893.992 53.6838 902.746 53.6658Z" fill="white"/>
<path fill-rule="evenodd" clip-rule="evenodd" d="M956.563 56.675C953.896 52.4437 949.263 49.7461 943.238 49.7461C932.86 49.7641 924.414 58.0012 924.4 68.0246C924.414 78.0481 932.856 86.2806 943.238 86.2987C949.267 86.2987 953.901 83.6011 956.563 79.3698L956.603 79.3021H956.679H956.965V84.4221C956.951 88.4504 956.715 101.005 942.547 101.027C937.035 101.027 931.83 99.3129 927.727 95.1628L925.136 97.5672C928.726 101.911 935.478 104.947 942.542 104.947C949.731 104.929 961.29 101.898 961.304 84.1063L961.299 50.6799H956.96V56.7426H956.826H956.599L956.563 56.675ZM957.12 68.0292C957.12 75.9506 950.761 82.3787 942.929 82.3832C935.098 82.3787 928.739 75.9506 928.739 68.0292C928.739 60.1034 935.098 53.6708 942.929 53.6708C950.761 53.6708 957.12 60.1034 957.12 68.0292Z" fill="white"/>
<path fill-rule="evenodd" clip-rule="evenodd" d="M994.898 50.6802L983.361 81.1474L969.723 50.6802H964.867L981.046 86.5967L977.8 94.9556C976.725 97.7524 974.709 101.14 971.222 101.14C968.845 101.14 967.471 100.725 966.209 100.215L964.113 103.301C965.87 104.329 969.313 104.952 971.298 104.952C976.31 104.952 979.423 102.06 981.314 97.5043L999.523 50.6847H994.898V50.6802Z" fill="white"/>
<path fill-rule="evenodd" clip-rule="evenodd" d="M594.92 17.1864C593.35 16.6135 588.672 15.1249 586.674 14.4889C584.672 13.8438 578.99 12.1792 577.332 11.674C576.729 10.8575 576.092 10.1944 575.592 9.7027C570.08 3.76623 561.692 0.225098 553.143 0.225098C543.429 0.225098 536.156 3.4685 533.663 4.74511H410.435C409.302 4.74511 406.845 4.74511 406.845 4.74511C406.845 4.74511 406.845 7.51486 406.845 8.37646C406.845 13.8393 413.07 17.9578 421.33 17.9578H456.28L484.576 38.1851V69.2072C484.576 84.5085 492.55 98.3482 505.893 106.247C517.06 112.86 523.794 113.388 531.433 113.388C531.982 113.388 532.53 113.383 533.097 113.379C533.667 113.379 534.247 113.374 534.845 113.374C535.812 113.374 538.435 113.374 538.435 113.374C538.435 113.374 538.435 110.772 538.435 109.743V48.813L540.825 47.0312L571.913 23.8447C571.913 23.8447 588.253 22.8207 592.396 22.55C594.697 22.4011 597.293 22.1801 599.103 21.9636C600.767 21.7651 601.445 21.2328 601.445 20.7952C601.445 20.2674 601.137 20.0599 600.749 19.7667C600.428 19.5186 597.962 18.3007 594.92 17.1864Z" fill="white"/>
<path fill-rule="evenodd" clip-rule="evenodd" d="M595.634 19.5683C595.634 19.5683 580.881 15.6302 575.209 15.125C575.209 15.125 552.763 27.3769 546.475 31.4954C540.178 35.6094 538.983 41.7985 538.702 44.1036L570.74 20.2179C570.74 20.2179 595.21 20.2179 595.848 20.2179C596.485 20.2179 595.634 19.5683 595.634 19.5683Z" fill="black"/>
<path fill-rule="evenodd" clip-rule="evenodd" d="M543.745 29.2308C550.319 24.792 573.014 12.2243 573.014 12.2243C573.014 12.2243 573.041 12.2514 573.045 12.2604C569.156 8.03814 562.088 3.85645 553.146 3.85645C542.149 3.85645 534.568 8.37646 534.568 8.37646H410.438C410.438 11.7462 415.46 14.322 421.333 14.322C425.699 14.322 457.429 14.322 457.429 14.322L488.174 36.3085V69.2072C488.174 83.489 495.586 95.9394 507.716 103.116C519.837 110.293 525.92 109.748 534.848 109.748V46.977C534.848 41.4466 536.494 34.1342 543.745 29.2308ZM563.341 13.9209C563.341 15.1795 562.324 16.2035 561.085 16.2035C559.84 16.2035 558.828 15.1795 558.828 13.9209C558.828 12.6669 559.845 11.6429 561.085 11.6429C562.324 11.6429 563.341 12.6669 563.341 13.9209ZM534.947 23.4435L549.021 15.5628L555.207 16.077L534.947 27.4493V23.4435Z" fill="black"/>
<path fill-rule="evenodd" clip-rule="evenodd" d="M457.431 14.3267H509.171C497.603 14.3267 488.175 23.7276 488.175 36.3132L457.431 14.3267Z" fill="#F0E614"/>
<path fill-rule="evenodd" clip-rule="evenodd" d="M570.197 13.8032C566.107 10.2801 559.668 7.05925 552.028 7.05925V3.879L553.148 3.85645C562.08 3.85645 569.126 8.01558 573.015 12.2243L570.197 13.8032Z" fill="#E60000"/>
<path fill-rule="evenodd" clip-rule="evenodd" d="M570.736 20.2178L548.318 36.9401C548.318 36.9401 548.05 34.4951 551.426 31.7389C554.797 28.9827 575.209 15.1294 575.209 15.1294L570.736 20.2178Z" fill="#E60000"/>
<path fill-rule="evenodd" clip-rule="evenodd" d="M525.432 62.9548C525.432 62.9548 525.432 54.9884 525.432 51.7676C525.432 47.0671 523.536 43.8102 519.211 40.7156L500.886 27.6157C498.83 29.8893 497.586 32.9342 497.586 36.3219C497.586 40.5442 499.588 44.2838 502.67 46.6611L525.432 62.9548Z" fill="white"/>
<path fill-rule="evenodd" clip-rule="evenodd" d="M18.5226 35.6856V86.2989H23.3211V35.6856H40.5219V31.2964H1.31738V35.6856H18.3888H18.5226Z" fill="white"/>
<path fill-rule="evenodd" clip-rule="evenodd" d="M61.5543 49.7464C55.8415 49.7418 51.2392 52.9807 49.4152 56.8963L49.3795 56.9775H49.2948H49.1253V31.2964H44.7861V86.2989H49.1253V68.494C49.1387 58.5699 54.6419 53.6845 61.5498 53.6664C68.9439 53.6845 70.585 59.4675 70.5939 65.3048V86.2989H74.9287V65.0702C74.9198 57.2391 72.5294 49.7644 61.5543 49.7464Z" fill="white"/>
<path fill-rule="evenodd" clip-rule="evenodd" d="M99.3264 83.3084C88.4717 83.3039 85.7647 73.5782 85.7513 69.6581V69.5228H115.555V66.3967C115.546 58.137 109.847 49.7511 99.0231 49.7466C88.7259 49.7556 81.4166 57.7581 81.4121 68.4221C81.421 79.465 88.4895 87.2329 99.2506 87.2374C105.481 87.2374 110.85 85.0316 114.436 79.7041L111.269 77.011C108.892 80.8679 104 83.3039 99.3264 83.3084ZM85.7503 65.458C85.7547 63.5318 88.6222 53.6888 98.7902 53.6663C105.694 53.6843 111.215 59.0073 111.215 65.458V65.5934H85.7503V65.458Z" fill="white"/>
<path fill-rule="evenodd" clip-rule="evenodd" d="M157.86 45.5874C155.478 42.7139 152.022 41.0809 147.567 41.0809C138.5 41.0809 131.82 48.5376 131.82 58.7956C131.82 69.0536 138.5 76.5103 147.183 76.5103C152.022 76.5103 155.937 74.336 158.399 70.6054L168.38 78.1433C163.849 84.6616 156.165 87.6975 148.713 87.6975C131.74 87.6975 119.373 76.4291 119.373 58.7911C119.373 41.1576 131.74 29.8892 148.713 29.8892C154.782 29.8892 162.462 31.9868 167.073 37.9729L157.86 45.5874Z" fill="white"/>
<path fill-rule="evenodd" clip-rule="evenodd" d="M189.166 47.6084C200.69 47.6084 209.903 55.3808 209.903 67.4207C209.903 79.465 200.69 87.2375 189.166 87.2375C177.647 87.2375 168.429 79.465 168.429 67.4207C168.429 55.3808 177.647 47.6084 189.166 47.6084ZM189.167 76.9792C194.929 76.9792 198.385 73.0953 198.385 67.4204C198.385 61.7501 194.929 57.8662 189.167 57.8662C183.405 57.8662 179.953 61.7501 179.953 67.4204C179.953 73.0953 183.41 76.9792 189.167 76.9792Z" fill="white"/>
<path fill-rule="evenodd" clip-rule="evenodd" d="M214.166 48.5421H225.689V54.6048H225.841C228.298 50.0172 231.527 47.6128 236.597 47.6128C237.904 47.6128 239.362 47.6895 240.437 48.0007V58.6467C238.823 58.1775 237.208 57.8663 235.518 57.8663C226.764 57.8663 225.685 62.9953 225.685 70.5332V86.3036H214.161V48.5421H214.166Z" fill="white"/>
<path fill-rule="evenodd" clip-rule="evenodd" d="M243.724 48.5422H254.783V53.6667H254.94C256.469 50.7165 260.238 47.6084 265.843 47.6084C277.519 47.6084 279.668 55.3808 279.668 65.4764V86.2992H268.149V67.8041C268.149 63.46 268.073 57.8619 262.16 57.8619C256.17 57.8619 255.247 62.6029 255.247 67.4974V86.2992H243.724V48.5422Z" fill="white"/>
<path fill-rule="evenodd" clip-rule="evenodd" d="M320.078 79.7714C316.394 84.517 310.325 87.2326 304.335 87.2326C292.816 87.2326 283.594 79.4602 283.594 67.4158C283.594 55.376 292.812 47.6035 304.335 47.6035C315.088 47.6035 321.844 55.376 321.844 67.4158V71.0742H295.117C296.041 75.4995 299.341 78.373 303.796 78.373C307.56 78.373 310.093 76.4288 312.015 73.7853L320.078 79.7714ZM310.324 63.1486C310.4 59.2692 307.403 56.0032 303.256 56.0032C298.19 56.0032 295.425 59.4947 295.117 63.1486H310.324Z" fill="white"/>
<path fill-rule="evenodd" clip-rule="evenodd" d="M325.919 58.7503V31.2964H337.438V58.7503V86.2989H325.919V58.7503Z" fill="white"/>
<path fill-rule="evenodd" clip-rule="evenodd" d="M344.203 58.7503V31.2964H355.722V58.7503V86.2989H344.203V58.7503Z" fill="white"/>
<path fill-rule="evenodd" clip-rule="evenodd" d="M369.263 58.7503V31.2964H364.46V58.7503V86.2989H391.423V81.9143H369.263V58.7503Z" fill="white"/>
<path fill-rule="evenodd" clip-rule="evenodd" d="M422.617 62.5894C422.599 53.5674 417.185 49.7691 408.618 49.7466C404.083 49.7466 398.638 51.5014 395.284 54.6726L397.799 57.6634C400.943 54.9838 404.484 53.6711 408.618 53.6711C414.331 53.6847 418.728 56.2153 418.737 62.5127V64.8223H413.225C409.738 64.8223 404.832 65.102 400.823 66.7305C396.809 68.3589 393.701 71.3182 393.696 76.7359C393.696 84.2467 400.047 87.2329 406.085 87.242C412.043 87.2375 415.812 85.0947 418.411 80.5477L418.452 80.48H418.532H418.817V80.6198C418.817 82.5911 418.964 84.5624 419.254 86.3082H423.29C422.769 82.2393 422.621 78.2831 422.621 71.3678V62.5894H422.617ZM418.737 70.8217C418.737 73.8306 418.099 76.9522 416.213 79.334C414.322 81.7022 411.182 83.3127 406.246 83.3127C406.246 83.3127 406.241 83.3127 406.237 83.3127C402.357 83.3036 398.044 81.0346 398.04 76.4965C398.067 70.2082 405.853 68.2865 413.537 68.2865H418.741V70.8217H418.737Z" fill="white"/>
<path fill-rule="evenodd" clip-rule="evenodd" d="M448.488 49.7418C443.221 49.7418 437.201 51.9928 434.395 56.9053L434.355 56.9775H434.279H433.99V31.2964H429.65V86.2989H433.99V80.0061H434.123H434.355L434.395 80.0783C437.201 84.9908 443.221 87.2327 448.488 87.2327C459.329 87.2282 467.009 79.3746 467.018 68.494C467.009 57.6045 459.329 49.7509 448.488 49.7418ZM448.487 83.3076C440.045 83.2986 433.543 76.6449 433.53 68.4935C433.543 60.3377 440.045 53.6839 448.487 53.6704C457.242 53.6839 462.66 60.3467 462.678 68.4935C462.66 76.6314 457.242 83.2986 448.487 83.3076Z" fill="white"/>
</svg>
