<svg width="1610" height="665" viewBox="0 0 1610 665" fill="none" xmlns="http://www.w3.org/2000/svg">
<g filter="url(#filter0_d)">
<g filter="url(#filter1_dd)">
<rect width="1440" height="452" transform="translate(85 103)" fill="#4E7B11"/>
</g>
</g>
<g filter="url(#filter2_d)">
<mask id="mask0" style="mask-type:alpha" maskUnits="userSpaceOnUse" x="146" y="0" width="1357" height="618">
<g clip-path="url(#clip0)">
<path d="M1270.77 223.243C1265.05 214.988 1267.11 203.664 1275.37 197.951L1335.16 156.569C1343.41 150.855 1354.74 152.916 1360.45 161.171L1422.52 250.855C1428.24 259.11 1426.18 270.434 1417.92 276.148L1358.13 317.53C1349.88 323.243 1338.55 321.183 1332.84 312.928L1270.77 223.243Z" fill="#5E980F"/>
<path d="M1284.57 147.365C1276.32 153.079 1274.26 164.403 1279.97 172.658L1339.76 131.276C1348.02 125.563 1359.34 127.623 1365.05 135.878L1437.47 240.51C1445.73 234.796 1447.79 223.472 1442.07 215.217L1369.65 110.585C1363.94 102.33 1352.62 100.27 1344.36 105.983L1284.57 147.365Z" fill="#5E980F"/>
</g>
<path d="M397.836 169.86C410.913 177.374 409.955 195.694 396.166 201.803L266.841 259.103C253.836 264.865 238.997 255.329 239.711 241.668L246.394 113.892C247.108 100.232 262.861 92.2954 275.194 99.3827L397.836 169.86Z" fill="#5E980F"/>
<path d="M185.639 421.847C180.859 419.493 178.891 413.709 181.245 408.929C183.598 404.148 189.382 402.181 194.163 404.534L379.406 495.732C384.187 498.086 386.154 503.869 383.801 508.65C381.447 513.431 375.663 515.398 370.883 513.045L185.639 421.847Z" fill="#5E980F"/>
<path d="M336.779 370.429C339.132 365.648 337.165 359.865 332.384 357.511C327.603 355.158 321.82 357.125 319.466 361.906L228.268 547.149C225.914 551.93 227.882 557.714 232.662 560.067C237.443 562.421 243.227 560.453 245.58 555.673L336.779 370.429Z" fill="#5E980F"/>
<path d="M1167.13 416.257C1168.34 421.144 1165.36 426.089 1160.47 427.301L1133.92 433.886C1124.15 436.31 1118.19 446.2 1120.61 455.975L1142.56 544.475C1144.98 554.25 1154.87 560.209 1164.65 557.785L1253.15 535.838C1262.92 533.413 1268.88 523.524 1266.46 513.748L1259.87 487.198C1258.66 482.311 1261.64 477.366 1266.53 476.154C1271.42 474.941 1276.36 477.921 1277.57 482.809L1288.55 527.059C1290.97 536.834 1285.01 546.724 1275.24 549.148L1151.34 579.875C1141.56 582.299 1131.67 576.34 1129.25 566.564L1098.52 442.665C1096.1 432.889 1102.06 423 1111.83 420.575L1156.08 409.602C1160.97 408.389 1165.92 411.369 1167.13 416.257Z" fill="#5E980F"/>
<path d="M1212.18 432.606C1215.43 427.215 1222.43 425.478 1227.82 428.726C1233.21 431.975 1234.95 438.98 1231.7 444.371L1208.67 482.601C1205.42 487.993 1198.41 489.73 1193.02 486.481C1187.63 483.232 1185.89 476.228 1189.14 470.836L1212.18 432.606Z" fill="#5E980F"/>
<path d="M1244.37 393.982C1247.28 392.66 1250.62 394.668 1250.81 397.861L1254.06 452.168C1254.28 455.832 1250.3 458.24 1247.16 456.346L1194.37 424.536C1191.22 422.642 1191.49 417.998 1194.84 416.48L1244.37 393.982Z" fill="#5E980F"/>
<g clip-path="url(#clip1)">
<path d="M722.33 100.774C729.031 95.9166 738.402 97.4115 743.259 104.113C748.117 110.815 746.622 120.185 739.92 125.043L701.091 153.188C694.389 158.045 685.019 156.55 680.161 149.849C675.304 143.147 676.799 133.777 683.5 128.919L722.33 100.774Z" fill="#5E980F"/>
<path d="M783.28 70.5036C786.45 70.4242 788.714 73.5482 787.652 76.536L762.043 148.606C760.824 152.035 756.259 152.692 754.123 149.745L703.273 79.5898C701.137 76.6431 703.181 72.5092 706.819 72.4181L783.28 70.5036Z" fill="#5E980F"/>
<path d="M616.014 213.787C609.313 218.644 599.944 217.149 595.087 210.448C590.23 203.747 591.725 194.378 598.426 189.521L637.276 161.361C643.977 156.504 653.346 157.999 658.203 164.699C663.06 171.4 661.566 180.769 654.865 185.626L616.014 213.787Z" fill="#5E980F"/>
<path d="M555.055 244.066C551.885 244.146 549.62 241.021 550.682 238.033L576.31 165.955C577.53 162.527 582.094 161.87 584.229 164.817L635.075 234.965C637.211 237.911 635.167 242.045 631.529 242.136L555.055 244.066Z" fill="#5E980F"/>
</g>
<path fill-rule="evenodd" clip-rule="evenodd" d="M1077.64 202.908C1104.12 175.57 1103.42 131.946 1076.08 105.473C1048.74 78.999 1005.12 79.7001 978.641 107.039C952.168 134.377 952.869 178 980.207 204.474C1007.55 230.948 1051.17 230.247 1077.64 202.908ZM1090.02 214.892C1123.11 180.719 1122.23 126.19 1088.06 93.0975C1053.89 60.0054 999.358 60.8818 966.266 95.0548C933.174 129.228 934.05 183.757 968.223 216.849C1002.4 249.941 1056.93 249.065 1090.02 214.892Z" fill="#5E980F"/>
<path fill-rule="evenodd" clip-rule="evenodd" d="M1057.32 75.3177L949.465 186.694L961.84 198.678L1069.69 87.3014L1057.32 75.3177Z" fill="#5E980F"/>
<path fill-rule="evenodd" clip-rule="evenodd" d="M1094.44 111.269L986.591 222.645L998.966 234.629L1106.82 123.253L1094.44 111.269Z" fill="#5E980F"/>
<path fill-rule="evenodd" clip-rule="evenodd" d="M1076.83 181.175C1072.11 167.752 1061.7 151.5 1046.12 136.411C1030.54 121.322 1013.96 111.438 1000.39 107.156C985.723 102.528 979.93 105.708 978.641 107.039C977.353 108.369 974.361 114.261 979.458 128.772C984.173 142.195 994.585 158.447 1010.17 173.536C1025.75 188.625 1042.33 198.509 1055.89 202.791C1070.56 207.419 1076.35 204.239 1077.64 202.908C1078.93 201.578 1081.92 195.685 1076.83 181.175ZM1090.02 214.892C1106.56 197.805 1092.27 157.128 1058.1 124.035C1023.93 90.9434 982.812 77.9683 966.266 95.0548C949.72 112.141 964.01 152.819 998.183 185.911C1032.36 219.003 1073.47 231.978 1090.02 214.892Z" fill="#5E980F"/>
<path d="M660.961 431.345C661.681 429.664 663.334 428.574 665.163 428.574H732.282C734.111 428.574 735.764 429.664 736.484 431.345L746.281 454.203C747.574 457.22 745.361 460.576 742.079 460.576H655.366C652.084 460.576 649.871 457.22 651.164 454.203L660.961 431.345Z" fill="#5E980F"/>
<path fill-rule="evenodd" clip-rule="evenodd" d="M625.574 456.004C615.474 456.004 607.287 464.192 607.287 474.291V556.583C607.287 566.683 615.474 574.87 625.574 574.87H771.871C781.971 574.87 790.158 566.683 790.158 556.583V474.291C790.158 464.192 781.971 456.004 771.871 456.004H625.574ZM698.723 547.44C718.922 547.44 735.297 531.065 735.297 510.866C735.297 490.666 718.922 474.291 698.723 474.291C678.523 474.291 662.148 490.666 662.148 510.866C662.148 531.065 678.523 547.44 698.723 547.44Z" fill="#5E980F"/>
</mask>
<g mask="url(#mask0)">
<rect x="79" y="103" width="1453" height="452" fill="#5E980F"/>
</g>
</g>
<g opacity="0.5" filter="url(#filter3_d)">
<rect x="85" y="103" width="1440" height="452" fill="black"/>
<rect x="85.5" y="103.5" width="1439" height="451" stroke="black"/>
</g>
<path fill-rule="evenodd" clip-rule="evenodd" d="M865.224 340.494C865.228 351.37 873.013 359.228 883.985 359.232C894.962 359.228 902.742 351.37 902.746 340.494C902.746 329.6 894.962 321.751 883.985 321.746C873.008 321.751 865.228 329.604 865.224 340.494V340.494ZM883.985 325.666C892.848 325.684 898.339 332.347 898.353 340.493C898.339 348.631 892.848 355.299 883.985 355.308C875.121 355.299 869.63 348.631 869.617 340.493C869.63 332.347 875.121 325.684 883.985 325.666V325.666Z" fill="white"/>
<path fill-rule="evenodd" clip-rule="evenodd" d="M910.661 358.299H915.054V328.107H923.453V324.178H915.054V315.427C915.059 308.963 917.122 305.746 921.489 305.733C923.204 305.733 924.505 305.949 925.593 306.45L926.46 302.683C925.105 302.101 923.444 301.808 921.254 301.808C916.716 301.822 910.665 304.542 910.656 313.717V324.178H903.192V328.107H910.521H910.656V358.299H910.661Z" fill="white"/>
<path fill-rule="evenodd" clip-rule="evenodd" d="M937.249 330.935C937.254 347.648 948.844 359.697 965.574 359.702C982.303 359.697 993.894 347.648 993.899 330.935C993.894 314.217 982.303 302.177 965.574 302.173C948.844 302.173 937.254 314.217 937.249 330.935V330.935ZM965.574 306.557C972.803 306.557 978.669 309.219 982.737 313.599C986.792 317.975 989.041 324.074 989.041 330.939C989.041 337.805 986.792 343.895 982.737 348.284C978.678 352.655 972.808 355.317 965.583 355.317C965.583 355.317 965.579 355.317 965.574 355.317C958.345 355.317 952.475 352.66 948.411 348.284C944.352 343.895 942.108 337.81 942.108 330.939C942.108 324.078 944.357 317.975 948.411 313.599C952.475 309.219 958.35 306.557 965.574 306.557V306.557Z" fill="white"/>
<path fill-rule="evenodd" clip-rule="evenodd" d="M1004.68 328.901L1004.5 329.212L1004.42 328.864C1004.26 328.138 1004.19 325.292 1004.11 322.675H999.714C999.727 324.656 1000.1 330.055 1000.1 332.64V358.299H1004.5V338.856C1004.5 331.824 1008.21 326.149 1016.38 326.135C1016.82 326.135 1017.4 326.203 1018.05 326.406L1018.56 322.102C1017.68 321.886 1016.86 321.746 1015.98 321.746C1010.67 321.746 1006.99 324.732 1004.68 328.901V328.901Z" fill="white"/>
<path fill-rule="evenodd" clip-rule="evenodd" d="M1039.86 321.746C1034.08 321.742 1029.54 324.98 1027.7 328.896L1027.66 328.973H1027.57H1027.23L1027.21 328.869C1027.05 328.138 1026.97 325.296 1026.9 322.68H1022.5C1022.52 324.656 1022.89 330.06 1022.89 332.645V358.303H1027.28V340.498C1027.29 330.574 1032.87 325.689 1039.86 325.671C1047.35 325.689 1049.01 331.476 1049.02 337.309V358.303H1053.41V337.074C1053.39 329.239 1050.98 321.76 1039.86 321.746V321.746Z" fill="white"/>
<path fill-rule="evenodd" clip-rule="evenodd" d="M1063.13 308.191C1063.13 310.059 1064.62 311.548 1066.49 311.548C1068.36 311.548 1069.85 310.059 1069.86 308.191C1069.85 306.319 1068.36 304.831 1066.49 304.826C1064.62 304.831 1063.13 306.319 1063.13 308.191V308.191Z" fill="white"/>
<path fill-rule="evenodd" clip-rule="evenodd" d="M1064.29 340.598V358.299H1068.69V340.598V322.68H1064.29V340.598Z" fill="white"/>
<path fill-rule="evenodd" clip-rule="evenodd" d="M1092.63 355.308C1089.45 355.304 1087.51 353.364 1087.51 350.125V326.605H1097.78V322.68H1087.51V312.346H1083.12V322.68H1075.34V326.605H1083.12V350.125C1083.13 355.214 1085.61 359.224 1092.24 359.237C1093.96 359.237 1096.46 358.642 1098.16 358.038L1097.8 354.136C1096.19 354.799 1094.38 355.308 1092.63 355.308V355.308Z" fill="white"/>
<path fill-rule="evenodd" clip-rule="evenodd" d="M1121.64 321.747C1115.86 321.742 1111.32 324.981 1109.48 328.897L1109.44 328.978H1109.36H1109.06V303.297H1104.67V358.299H1109.06V340.495C1109.08 330.57 1114.65 325.685 1121.65 325.671C1129.14 325.685 1130.8 331.473 1130.8 337.305V358.299H1135.2V337.071C1135.17 329.244 1132.75 321.76 1121.64 321.747V321.747Z" fill="white"/>
<path fill-rule="evenodd" clip-rule="evenodd" d="M1140 340.494C1140.01 351.37 1147.8 359.228 1158.76 359.232C1169.74 359.228 1177.52 351.37 1177.53 340.494C1177.52 329.6 1169.74 321.751 1158.76 321.746C1147.79 321.751 1140.01 329.604 1140 340.494V340.494ZM1158.76 325.671C1167.63 325.684 1173.12 332.347 1173.14 340.494C1173.12 348.632 1167.63 355.299 1158.76 355.308C1149.9 355.299 1144.41 348.632 1144.4 340.494C1144.41 332.347 1149.9 325.684 1158.76 325.671V325.671Z" fill="white"/>
<path fill-rule="evenodd" clip-rule="evenodd" d="M1183.2 330.751V358.299H1187.6V330.751V303.297H1183.2V330.751Z" fill="white"/>
<path fill-rule="evenodd" clip-rule="evenodd" d="M1193.27 340.494C1193.28 351.374 1201.06 359.228 1212.03 359.232C1223.01 359.228 1230.79 351.374 1230.79 340.494C1230.79 329.6 1223 321.751 1212.03 321.746C1201.06 321.751 1193.28 329.604 1193.27 340.494V340.494ZM1212.03 325.666C1220.89 325.684 1226.38 332.347 1226.4 340.493C1226.38 348.631 1220.89 355.299 1212.03 355.308C1203.17 355.299 1197.67 348.631 1197.66 340.493C1197.67 332.347 1203.17 325.684 1212.03 325.666V325.666Z" fill="white"/>
<path fill-rule="evenodd" clip-rule="evenodd" d="M1266.52 328.675C1263.82 324.444 1259.13 321.746 1253.03 321.746C1242.52 321.764 1233.97 330.001 1233.96 340.025C1233.97 350.048 1242.52 358.281 1253.03 358.299C1259.14 358.299 1263.83 355.601 1266.52 351.37L1266.56 351.302H1266.64H1266.93V356.422C1266.92 360.45 1266.68 373.005 1252.33 373.027C1246.75 373.027 1241.48 371.313 1237.33 367.163L1234.7 369.567C1238.34 373.911 1245.17 376.947 1252.33 376.947C1259.61 376.929 1271.31 373.898 1271.32 356.106L1271.32 322.68H1266.92V328.743H1266.79H1266.56L1266.52 328.675V328.675ZM1267.09 340.029C1267.09 347.951 1260.65 354.379 1252.72 354.383C1244.79 354.379 1238.35 347.951 1238.35 340.029C1238.35 332.103 1244.79 325.671 1252.72 325.671C1260.65 325.671 1267.09 332.103 1267.09 340.029V340.029Z" fill="white"/>
<path fill-rule="evenodd" clip-rule="evenodd" d="M1305.34 322.68L1293.65 353.147L1279.85 322.68H1274.93L1291.31 358.597L1288.02 366.956C1286.94 369.752 1284.89 373.14 1281.36 373.14C1278.96 373.14 1277.57 372.725 1276.29 372.215L1274.17 375.301C1275.95 376.329 1279.43 376.952 1281.44 376.952C1286.52 376.952 1289.67 374.06 1291.58 369.504L1310.02 322.685H1305.34V322.68Z" fill="white"/>
<path fill-rule="evenodd" clip-rule="evenodd" d="M900.357 289.186C898.768 288.614 894.031 287.125 892.008 286.489C889.981 285.844 884.228 284.179 882.548 283.674C881.939 282.858 881.293 282.194 880.788 281.703C875.207 275.766 866.713 272.225 858.057 272.225C848.223 272.225 840.858 275.469 838.334 276.745H713.566C712.419 276.745 709.931 276.745 709.931 276.745C709.931 276.745 709.931 279.515 709.931 280.376C709.931 285.839 716.234 289.958 724.597 289.958H759.983L788.633 310.185V341.207C788.633 356.509 796.707 370.348 810.217 378.247C821.523 384.86 828.342 385.388 836.076 385.388C836.632 385.388 837.187 385.383 837.761 385.379C838.339 385.379 838.926 385.374 839.531 385.374C840.51 385.374 843.166 385.374 843.166 385.374C843.166 385.374 843.166 382.772 843.166 381.743V320.813L845.586 319.031L877.062 295.845C877.062 295.845 893.607 294.821 897.801 294.55C900.131 294.401 902.759 294.18 904.592 293.964C906.277 293.765 906.963 293.233 906.963 292.795C906.963 292.267 906.652 292.06 906.259 291.767C905.934 291.519 903.437 290.301 900.357 289.186V289.186Z" fill="white"/>
<path fill-rule="evenodd" clip-rule="evenodd" d="M901.079 291.568C901.079 291.568 886.142 287.63 880.398 287.125C880.398 287.125 857.672 299.377 851.306 303.495C844.93 307.609 843.72 313.799 843.436 316.104L875.874 292.218C875.874 292.218 900.65 292.218 901.295 292.218C901.941 292.218 901.079 291.568 901.079 291.568V291.568Z" fill="black"/>
<path fill-rule="evenodd" clip-rule="evenodd" d="M848.544 301.231C855.199 296.792 878.178 284.224 878.178 284.224C878.178 284.224 878.205 284.251 878.209 284.26C874.272 280.038 867.115 275.856 858.062 275.856C846.927 275.856 839.251 280.376 839.251 280.376H713.57C713.57 283.746 718.655 286.322 724.601 286.322C729.022 286.322 761.149 286.322 761.149 286.322L792.278 308.309V341.207C792.278 355.489 799.782 367.939 812.064 375.116C824.337 382.293 830.496 381.748 839.535 381.748V318.977C839.535 313.447 841.202 306.134 848.544 301.231V301.231ZM868.384 285.921C868.384 287.179 867.354 288.203 866.099 288.203C864.839 288.203 863.814 287.179 863.814 285.921C863.814 284.667 864.844 283.643 866.099 283.643C867.354 283.643 868.384 284.667 868.384 285.921ZM839.634 295.444L853.884 287.563L860.147 288.077L839.634 299.449V295.444V295.444Z" fill="black"/>
<path fill-rule="evenodd" clip-rule="evenodd" d="M761.147 286.327H813.535C801.822 286.327 792.276 295.728 792.276 308.313L761.147 286.327V286.327Z" fill="#F0E614"/>
<path fill-rule="evenodd" clip-rule="evenodd" d="M875.322 285.803C871.182 282.28 864.662 279.059 856.927 279.059V275.879L858.06 275.856C867.104 275.856 874.239 280.016 878.176 284.224L875.322 285.803V285.803Z" fill="#E60000"/>
<path fill-rule="evenodd" clip-rule="evenodd" d="M875.871 292.218L853.172 308.94C853.172 308.94 852.901 306.495 856.319 303.739C859.733 300.983 880.4 287.129 880.4 287.129L875.871 292.218V292.218Z" fill="#E60000"/>
<path fill-rule="evenodd" clip-rule="evenodd" d="M829.998 334.955C829.998 334.955 829.998 326.988 829.998 323.768C829.998 319.067 828.079 315.81 823.699 312.716L805.145 299.616C803.063 301.889 801.804 304.934 801.804 308.322C801.804 312.544 803.831 316.284 806.951 318.661L829.998 334.955V334.955Z" fill="white"/>
<path fill-rule="evenodd" clip-rule="evenodd" d="M316.755 307.686V358.299H321.614V307.686H339.03V303.296H299.335V307.686H316.62H316.755Z" fill="white"/>
<path fill-rule="evenodd" clip-rule="evenodd" d="M360.324 321.746C354.54 321.742 349.88 324.981 348.034 328.896L347.998 328.977H347.912H347.74V303.296H343.347V358.299H347.74V340.494C347.754 330.57 353.326 325.684 360.32 325.666C367.806 325.684 369.468 331.468 369.477 337.305V358.299H373.866V337.07C373.857 329.239 371.437 321.764 360.324 321.746V321.746Z" fill="white"/>
<path fill-rule="evenodd" clip-rule="evenodd" d="M398.569 355.308C387.578 355.304 384.838 345.578 384.824 341.658V341.523H415V338.397C414.991 330.137 409.221 321.751 398.262 321.747C387.836 321.756 380.435 329.758 380.431 340.422C380.44 351.465 387.597 359.233 398.492 359.237C404.8 359.237 410.237 357.032 413.867 351.704L410.661 349.011C408.254 352.868 403.301 355.304 398.569 355.308V355.308ZM384.824 337.458C384.829 335.532 387.732 325.689 398.027 325.666C405.017 325.684 410.607 331.007 410.607 337.458V337.593H384.824V337.458V337.458Z" fill="white"/>
<path fill-rule="evenodd" clip-rule="evenodd" d="M457.833 317.587C455.422 314.714 451.922 313.081 447.411 313.081C438.232 313.081 431.468 320.538 431.468 330.796C431.468 341.054 438.232 348.51 447.023 348.51C451.922 348.51 455.887 346.336 458.379 342.605L468.485 350.143C463.897 356.662 456.117 359.698 448.572 359.698C431.386 359.698 418.865 348.429 418.865 330.791C418.865 313.158 431.386 301.889 448.572 301.889C454.717 301.889 462.493 303.987 467.162 309.973L457.833 317.587V317.587Z" fill="white"/>
<path fill-rule="evenodd" clip-rule="evenodd" d="M489.532 319.608C501.199 319.608 510.528 327.381 510.528 339.421C510.528 351.465 501.199 359.237 489.532 359.237C477.868 359.237 468.535 351.465 468.535 339.421C468.535 327.381 477.868 319.608 489.532 319.608V319.608ZM489.532 348.979C495.365 348.979 498.865 345.095 498.865 339.42C498.865 333.75 495.365 329.866 489.532 329.866C483.698 329.866 480.203 333.75 480.203 339.42C480.203 345.095 483.702 348.979 489.532 348.979V348.979Z" fill="white"/>
<path fill-rule="evenodd" clip-rule="evenodd" d="M514.844 320.542H526.512V326.605H526.666C529.154 322.017 532.423 319.613 537.557 319.613C538.88 319.613 540.356 319.689 541.444 320.001V330.647C539.81 330.178 538.175 329.866 536.464 329.866C527.6 329.866 526.508 334.995 526.508 342.533V358.304H514.84V320.542H514.844Z" fill="white"/>
<path fill-rule="evenodd" clip-rule="evenodd" d="M544.771 320.542H555.97V325.667H556.128C557.676 322.716 561.492 319.608 567.168 319.608C578.989 319.608 581.165 327.381 581.165 337.476V358.299H569.502V339.804C569.502 335.46 569.425 329.862 563.438 329.862C557.374 329.862 556.439 334.603 556.439 339.497V358.299H544.771V320.542V320.542Z" fill="white"/>
<path fill-rule="evenodd" clip-rule="evenodd" d="M622.079 351.771C618.349 356.517 612.204 359.233 606.14 359.233C594.476 359.233 585.139 351.46 585.139 339.416C585.139 327.376 594.472 319.604 606.14 319.604C617.026 319.604 623.867 327.376 623.867 339.416V343.074H596.806C597.741 347.5 601.082 350.373 605.593 350.373C609.404 350.373 611.969 348.429 613.915 345.785L622.079 351.771V351.771ZM612.204 335.149C612.281 331.269 609.246 328.003 605.047 328.003C599.918 328.003 597.118 331.495 596.806 335.149H612.204V335.149Z" fill="white"/>
<path fill-rule="evenodd" clip-rule="evenodd" d="M627.994 330.75V303.296H639.657V330.75V358.299H627.994V330.75V330.75Z" fill="white"/>
<path fill-rule="evenodd" clip-rule="evenodd" d="M646.509 330.75V303.296H658.172V330.75V358.299H646.509V330.75V330.75Z" fill="white"/>
<path fill-rule="evenodd" clip-rule="evenodd" d="M671.881 330.75V303.296H667.018V330.75V358.299H694.317V353.914H671.881V330.75Z" fill="white"/>
<path fill-rule="evenodd" clip-rule="evenodd" d="M725.901 334.589C725.883 325.567 720.402 321.769 711.728 321.747C707.135 321.747 701.622 323.501 698.227 326.673L700.773 329.663C703.957 326.984 707.542 325.671 711.728 325.671C717.512 325.685 721.964 328.215 721.973 334.513V336.822H716.392C712.861 336.822 707.894 337.102 703.835 338.73C699.771 340.359 696.624 343.318 696.619 348.736C696.619 356.247 703.049 359.233 709.163 359.242C715.195 359.237 719.011 357.095 721.643 352.548L721.684 352.48H721.765H722.054V352.62C722.054 354.591 722.203 356.562 722.497 358.308H726.583C726.055 354.239 725.906 350.283 725.906 343.368V334.589H725.901ZM721.973 342.822C721.973 345.831 721.327 348.952 719.417 351.334C717.503 353.702 714.324 355.313 709.325 355.313C709.325 355.313 709.321 355.313 709.316 355.313C705.388 355.304 701.021 353.035 701.017 348.497C701.044 342.208 708.928 340.287 716.708 340.287H721.977V342.822H721.973Z" fill="white"/>
<path fill-rule="evenodd" clip-rule="evenodd" d="M752.095 321.742C746.763 321.742 740.667 323.993 737.827 328.905L737.786 328.977H737.709H737.416V303.296H733.022V358.299H737.416V352.006H737.551H737.786L737.827 352.078C740.667 356.991 746.763 359.233 752.095 359.233C763.072 359.228 770.848 351.375 770.857 340.494C770.848 329.605 763.072 321.751 752.095 321.742V321.742ZM752.096 355.308C743.548 355.299 736.965 348.645 736.951 340.494C736.965 332.338 743.548 325.684 752.096 325.67C760.959 325.684 766.445 332.347 766.464 340.494C766.445 348.631 760.959 355.299 752.096 355.308V355.308Z" fill="white"/>
<defs>
<filter id="filter0_d" x="81" y="103" width="1448" height="460" filterUnits="userSpaceOnUse" color-interpolation-filters="sRGB">
<feFlood flood-opacity="0" result="BackgroundImageFix"/>
<feColorMatrix in="SourceAlpha" type="matrix" values="0 0 0 0 0 0 0 0 0 0 0 0 0 0 0 0 0 0 127 0" result="hardAlpha"/>
<feOffset dy="4"/>
<feGaussianBlur stdDeviation="2"/>
<feComposite in2="hardAlpha" operator="out"/>
<feColorMatrix type="matrix" values="0 0 0 0 0 0 0 0 0 0 0 0 0 0 0 0 0 0 0.25 0"/>
<feBlend mode="normal" in2="BackgroundImageFix" result="effect1_dropShadow"/>
<feBlend mode="normal" in="SourceGraphic" in2="effect1_dropShadow" result="shape"/>
</filter>
<filter id="filter1_dd" x="0.55555" y="43.8889" width="1608.89" height="620.889" filterUnits="userSpaceOnUse" color-interpolation-filters="sRGB">
<feFlood flood-opacity="0" result="BackgroundImageFix"/>
<feColorMatrix in="SourceAlpha" type="matrix" values="0 0 0 0 0 0 0 0 0 0 0 0 0 0 0 0 0 0 127 0" result="hardAlpha"/>
<feOffset dy="25.3333"/>
<feGaussianBlur stdDeviation="42.2222"/>
<feComposite in2="hardAlpha" operator="out"/>
<feColorMatrix type="matrix" values="0 0 0 0 0.368627 0 0 0 0 0.596078 0 0 0 0 0.0588235 0 0 0 0.3 0"/>
<feBlend mode="normal" in2="BackgroundImageFix" result="effect1_dropShadow"/>
<feColorMatrix in="SourceAlpha" type="matrix" values="0 0 0 0 0 0 0 0 0 0 0 0 0 0 0 0 0 0 127 0" result="hardAlpha"/>
<feOffset dy="8.44444"/>
<feGaussianBlur stdDeviation="12.6667"/>
<feComposite in2="hardAlpha" operator="out"/>
<feColorMatrix type="matrix" values="0 0 0 0 0.305882 0 0 0 0 0.482353 0 0 0 0 0.0666667 0 0 0 1 0"/>
<feBlend mode="normal" in2="effect1_dropShadow" result="effect2_dropShadow"/>
<feBlend mode="normal" in="SourceGraphic" in2="effect2_dropShadow" result="shape"/>
</filter>
<filter id="filter2_d" x="142" y="103" width="1365" height="460" filterUnits="userSpaceOnUse" color-interpolation-filters="sRGB">
<feFlood flood-opacity="0" result="BackgroundImageFix"/>
<feColorMatrix in="SourceAlpha" type="matrix" values="0 0 0 0 0 0 0 0 0 0 0 0 0 0 0 0 0 0 127 0" result="hardAlpha"/>
<feOffset dy="4"/>
<feGaussianBlur stdDeviation="2"/>
<feComposite in2="hardAlpha" operator="out"/>
<feColorMatrix type="matrix" values="0 0 0 0 0 0 0 0 0 0 0 0 0 0 0 0 0 0 0.25 0"/>
<feBlend mode="normal" in2="BackgroundImageFix" result="effect1_dropShadow"/>
<feBlend mode="normal" in="SourceGraphic" in2="effect1_dropShadow" result="shape"/>
</filter>
<filter id="filter3_d" x="81" y="103" width="1448" height="460" filterUnits="userSpaceOnUse" color-interpolation-filters="sRGB">
<feFlood flood-opacity="0" result="BackgroundImageFix"/>
<feColorMatrix in="SourceAlpha" type="matrix" values="0 0 0 0 0 0 0 0 0 0 0 0 0 0 0 0 0 0 127 0" result="hardAlpha"/>
<feOffset dy="4"/>
<feGaussianBlur stdDeviation="2"/>
<feComposite in2="hardAlpha" operator="out"/>
<feColorMatrix type="matrix" values="0 0 0 0 0 0 0 0 0 0 0 0 0 0 0 0 0 0 0.25 0"/>
<feBlend mode="normal" in2="BackgroundImageFix" result="effect1_dropShadow"/>
<feBlend mode="normal" in="SourceGraphic" in2="effect1_dropShadow" result="shape"/>
</filter>
<clipPath id="clip0">
<rect width="218.14" height="218.14" fill="white" transform="translate(1199.49 184.144) rotate(-34.688)"/>
</clipPath>
<clipPath id="clip1">
<rect width="216.973" height="216.973" fill="white" transform="translate(578.701 33.2085) rotate(9.06408)"/>
</clipPath>
</defs>
</svg>
